<?xml version="1.0" encoding="UTF-8"?>
<svg width="700" height="700" version="1.1" xmlns="http://www.w3.org/2000/svg" xmlns:xlink="http://www.w3.org/1999/xlink">
 <defs>
  <symbol id="v" overflow="visible">
   <path d="m5.5156-0.32812c-0.28125 0.14844-0.57812 0.25781-0.89062 0.32812-0.30469 0.070312-0.625 0.10938-0.96875 0.10938-1 0-1.793-0.27344-2.375-0.82812-0.58594-0.5625-0.875-1.3203-0.875-2.2812 0-0.95703 0.28906-1.7109 0.875-2.2656 0.58203-0.5625 1.375-0.84375 2.375-0.84375 0.34375 0 0.66406 0.039063 0.96875 0.10938 0.3125 0.074219 0.60938 0.18359 0.89062 0.32812v1.25c-0.28125-0.19531-0.5625-0.33594-0.84375-0.42188-0.28125-0.09375-0.57812-0.14062-0.89062-0.14062-0.55469 0-0.98438 0.17969-1.2969 0.53125-0.3125 0.35547-0.46875 0.83984-0.46875 1.4531 0 0.625 0.15625 1.1172 0.46875 1.4688 0.3125 0.35547 0.74219 0.53125 1.2969 0.53125 0.3125 0 0.60938-0.046875 0.89062-0.14062s0.5625-0.23828 0.84375-0.4375z"/>
  </symbol>
  <symbol id="d" overflow="visible">
   <path d="m4.0312-3.2812c-0.125-0.050781-0.25-0.09375-0.375-0.125s-0.25-0.046875-0.375-0.046875c-0.36719 0-0.65234 0.12109-0.85938 0.35938-0.19922 0.24219-0.29688 0.57812-0.29688 1.0156v2.0781h-1.4375v-4.5h1.4375v0.73438c0.1875-0.28906 0.39844-0.50391 0.64062-0.64062 0.23828-0.13281 0.52344-0.20312 0.85938-0.20312 0.050781 0 0.10156 0.007813 0.15625 0.015625 0.0625 0 0.14453 0.007812 0.25 0.015625z"/>
  </symbol>
  <symbol id="a" overflow="visible">
   <path d="m5.1875-2.2656v0.40625h-3.3594c0.03125 0.34375 0.14844 0.60156 0.35938 0.76562 0.20703 0.16797 0.5 0.25 0.875 0.25 0.30078 0 0.60938-0.039062 0.92188-0.125 0.32031-0.09375 0.64844-0.23438 0.98438-0.42188v1.125c-0.33594 0.125-0.67188 0.21875-1.0156 0.28125s-0.68359 0.09375-1.0156 0.09375c-0.82422 0-1.4609-0.20312-1.9062-0.60938-0.44922-0.41406-0.67188-1-0.67188-1.75 0-0.72656 0.21875-1.3008 0.65625-1.7188 0.44531-0.42578 1.0547-0.64062 1.8281-0.64062 0.70703 0 1.2734 0.21484 1.7031 0.64062 0.42578 0.42969 0.64062 0.99609 0.64062 1.7031zm-1.4844-0.46875c0-0.28125-0.078125-0.50391-0.23438-0.67188-0.15625-0.16406-0.36719-0.25-0.625-0.25-0.28125 0-0.51172 0.078125-0.6875 0.23438-0.16797 0.15625-0.27344 0.38672-0.3125 0.6875z"/>
  </symbol>
  <symbol id="e" overflow="visible">
   <path d="m2.7031-2.0312c-0.29297 0-0.51562 0.054688-0.67188 0.15625-0.14844 0.10547-0.21875 0.25781-0.21875 0.45312 0 0.17969 0.054688 0.32031 0.17188 0.42188 0.125 0.10547 0.29688 0.15625 0.51562 0.15625 0.26953 0 0.49219-0.09375 0.67188-0.28125 0.1875-0.19531 0.28125-0.44141 0.28125-0.73438v-0.17188zm2.2031-0.53125v2.5625h-1.4531v-0.67188c-0.1875 0.28125-0.40625 0.48438-0.65625 0.60938-0.24219 0.11328-0.53125 0.17188-0.875 0.17188-0.46875 0-0.85156-0.13281-1.1406-0.40625-0.28125-0.26953-0.42188-0.61719-0.42188-1.0469 0-0.53125 0.17578-0.92188 0.53125-1.1719 0.36328-0.25 0.9375-0.375 1.7188-0.375h0.84375v-0.10938c0-0.22656-0.089844-0.39453-0.26562-0.5-0.17969-0.10156-0.46094-0.15625-0.84375-0.15625-0.30469 0-0.58984 0.03125-0.85938 0.09375-0.26172 0.0625-0.50781 0.15625-0.73438 0.28125v-1.0938c0.30078-0.082031 0.60938-0.14062 0.92188-0.17188 0.3125-0.039063 0.625-0.0625 0.9375-0.0625 0.8125 0 1.3945 0.16406 1.75 0.48438 0.36328 0.3125 0.54688 0.83594 0.54688 1.5625z"/>
  </symbol>
  <symbol id="c" overflow="visible">
   <path d="m2.2656-5.7812v1.2812h1.4844v1.0312h-1.4844v1.9062c0 0.21094 0.039063 0.35156 0.125 0.42188 0.082031 0.074219 0.25 0.10938 0.5 0.10938h0.73438v1.0312h-1.2344c-0.57422 0-0.98047-0.11719-1.2188-0.35938-0.23047-0.23828-0.34375-0.64062-0.34375-1.2031v-1.9062h-0.71875v-1.0312h0.71875v-1.2812z"/>
  </symbol>
  <symbol id="k" overflow="visible">
   <path d="m3.75-3.8438v-2.4062h1.4531v6.25h-1.4531v-0.65625c-0.19922 0.27344-0.41797 0.46875-0.65625 0.59375-0.24219 0.11328-0.51562 0.17188-0.82812 0.17188-0.55469 0-1.0078-0.21875-1.3594-0.65625-0.35547-0.4375-0.53125-1.0039-0.53125-1.7031 0-0.6875 0.17578-1.25 0.53125-1.6875 0.35156-0.44531 0.80469-0.67188 1.3594-0.67188 0.3125 0 0.58594 0.0625 0.82812 0.1875 0.23828 0.125 0.45703 0.32031 0.65625 0.57812zm-0.9375 2.9219c0.30078 0 0.53125-0.11328 0.6875-0.34375 0.16406-0.22656 0.25-0.55469 0.25-0.98438 0-0.42578-0.085938-0.75-0.25-0.96875-0.15625-0.22656-0.38672-0.34375-0.6875-0.34375-0.3125 0-0.55469 0.11719-0.71875 0.34375-0.15625 0.21875-0.23438 0.54297-0.23438 0.96875 0 0.42969 0.078125 0.75781 0.23438 0.98438 0.16406 0.23047 0.40625 0.34375 0.71875 0.34375z"/>
  </symbol>
  <symbol id="j" overflow="visible">
   <path d="m3.0938-0.92188c0.30078 0 0.53125-0.11328 0.6875-0.34375 0.16406-0.22656 0.25-0.55469 0.25-0.98438 0-0.42578-0.085938-0.75-0.25-0.96875-0.15625-0.22656-0.38672-0.34375-0.6875-0.34375-0.3125 0-0.55469 0.11719-0.71875 0.34375-0.16797 0.21875-0.25 0.54297-0.25 0.96875 0 0.42969 0.082031 0.75781 0.25 0.98438 0.16406 0.23047 0.40625 0.34375 0.71875 0.34375zm-0.96875-2.9219c0.19531-0.25781 0.41406-0.45312 0.65625-0.57812 0.25-0.125 0.53125-0.1875 0.84375-0.1875 0.55078 0 1.0039 0.22656 1.3594 0.67188 0.36328 0.4375 0.54688 1 0.54688 1.6875 0 0.69922-0.18359 1.2656-0.54688 1.7031-0.35547 0.4375-0.80859 0.65625-1.3594 0.65625-0.3125 0-0.59375-0.058594-0.84375-0.17188-0.24219-0.125-0.46094-0.32031-0.65625-0.59375v0.65625h-1.4375v-6.25h1.4375z"/>
  </symbol>
  <symbol id="i" overflow="visible">
   <path d="m0.09375-4.5h1.4531l1.2031 3.0469 1.0312-3.0469h1.4375l-1.8906 4.9219c-0.1875 0.5-0.41406 0.84766-0.67188 1.0469-0.25 0.20703-0.58594 0.3125-1 0.3125h-0.82812v-0.95312h0.45312c0.23828 0 0.41016-0.042969 0.51562-0.125 0.11328-0.074219 0.20312-0.21094 0.26562-0.40625l0.046875-0.125z"/>
  </symbol>
  <symbol id="h" overflow="visible">
   <path d="m0.75-6h1.9688l1.375 3.2031 1.375-3.2031h1.9688v6h-1.4688v-4.3906l-1.375 3.2344h-0.98438l-1.3906-3.2344v4.3906h-1.4688z"/>
  </symbol>
  <symbol id="u" overflow="visible">
   <path d="m1.8281-2.2969-1.625-2.2031h1.5312l0.92188 1.3281 0.92188-1.3281h1.5312l-1.625 2.1875 1.7031 2.3125h-1.5312l-1-1.4219-1 1.4219h-1.5312z"/>
  </symbol>
  <symbol id="t" overflow="visible">
   <path d="m0.6875-4.5h1.4375v4.5h-1.4375zm0-1.75h1.4375v1.1719h-1.4375z"/>
  </symbol>
  <symbol id="g" overflow="visible">
   <path d="m4.3281-4.3594v1.1719c-0.19922-0.13281-0.39844-0.23438-0.59375-0.29688-0.1875-0.0625-0.39062-0.09375-0.60938-0.09375-0.39844 0-0.71094 0.12109-0.9375 0.35938-0.21875 0.23047-0.32812 0.55469-0.32812 0.96875 0 0.42969 0.10938 0.76172 0.32812 1 0.22656 0.23047 0.53906 0.34375 0.9375 0.34375 0.22656 0 0.44141-0.03125 0.64062-0.09375 0.20703-0.070312 0.39453-0.17578 0.5625-0.3125v1.1875c-0.21875 0.074219-0.44922 0.12891-0.6875 0.17188-0.23047 0.039062-0.46094 0.0625-0.6875 0.0625-0.8125 0-1.4492-0.20703-1.9062-0.625-0.46094-0.41406-0.6875-0.99219-0.6875-1.7344 0-0.73828 0.22656-1.3164 0.6875-1.7344 0.45703-0.41406 1.0938-0.625 1.9062-0.625 0.22656 0 0.45703 0.023437 0.6875 0.0625 0.22656 0.042969 0.45703 0.10547 0.6875 0.1875z"/>
  </symbol>
  <symbol id="b" overflow="visible">
   <path d="m2.8281-3.5781c-0.3125 0-0.55469 0.11719-0.71875 0.34375-0.16797 0.23047-0.25 0.55859-0.25 0.98438 0 0.4375 0.082031 0.77344 0.25 1 0.16406 0.23047 0.40625 0.34375 0.71875 0.34375 0.32031 0 0.5625-0.11328 0.71875-0.34375 0.16406-0.22656 0.25-0.5625 0.25-1 0-0.42578-0.085937-0.75391-0.25-0.98438-0.15625-0.22656-0.39844-0.34375-0.71875-0.34375zm0-1.0312c0.78125 0 1.3828 0.21094 1.8125 0.625 0.4375 0.41797 0.65625 0.99609 0.65625 1.7344 0 0.74219-0.21875 1.3203-0.65625 1.7344-0.42969 0.41797-1.0312 0.625-1.8125 0.625-0.77344 0-1.375-0.20703-1.8125-0.625-0.4375-0.41406-0.65625-0.99219-0.65625-1.7344 0-0.73828 0.21875-1.3164 0.65625-1.7344 0.4375-0.41406 1.0391-0.625 1.8125-0.625z"/>
  </symbol>
  <symbol id="f" overflow="visible">
   <path d="m5.2188-2.7344v2.7344h-1.4531v-2.0938c0-0.39453-0.011719-0.66406-0.03125-0.8125-0.011719-0.14453-0.039063-0.25391-0.078125-0.32812-0.054688-0.09375-0.13281-0.16406-0.23438-0.21875-0.09375-0.050781-0.20312-0.078125-0.32812-0.078125-0.30469 0-0.54297 0.12109-0.71875 0.35938-0.16797 0.23047-0.25 0.54688-0.25 0.95312v2.2188h-1.4375v-4.5h1.4375v0.65625c0.21875-0.25781 0.44531-0.45312 0.6875-0.57812 0.25-0.125 0.51953-0.1875 0.8125-0.1875 0.51953 0 0.91406 0.16406 1.1875 0.48438 0.26953 0.3125 0.40625 0.77734 0.40625 1.3906z"/>
  </symbol>
  <symbol id="s" overflow="visible">
   <path d="m4.2031-4.3594v1.0938c-0.30469-0.13281-0.60156-0.23438-0.89062-0.29688-0.28125-0.0625-0.55469-0.09375-0.8125-0.09375-0.27344 0-0.47656 0.039062-0.60938 0.10938-0.125 0.0625-0.1875 0.16797-0.1875 0.3125 0 0.11719 0.046875 0.20312 0.14062 0.26562 0.10156 0.0625 0.28516 0.10938 0.54688 0.14062l0.25 0.03125c0.73828 0.09375 1.2344 0.25 1.4844 0.46875 0.25781 0.21094 0.39062 0.54297 0.39062 1 0 0.48047-0.17969 0.83984-0.53125 1.0781-0.35547 0.24219-0.88672 0.35938-1.5938 0.35938-0.29297 0-0.60156-0.027344-0.92188-0.078125-0.3125-0.039062-0.63672-0.10938-0.96875-0.20312v-1.0938c0.28125 0.14844 0.57031 0.25781 0.875 0.32812 0.30078 0.0625 0.60938 0.09375 0.92188 0.09375 0.28125 0 0.48828-0.035156 0.625-0.10938 0.14453-0.082031 0.21875-0.19531 0.21875-0.34375 0-0.13281-0.054687-0.23438-0.15625-0.29688-0.09375-0.0625-0.28906-0.10938-0.57812-0.14062l-0.25-0.03125c-0.63672-0.082031-1.0859-0.23438-1.3438-0.45312-0.26172-0.21875-0.39062-0.54688-0.39062-0.98438 0-0.47656 0.16016-0.83203 0.48438-1.0625 0.33203-0.22656 0.83594-0.34375 1.5156-0.34375 0.25781 0 0.53516 0.023437 0.82812 0.0625 0.28906 0.042969 0.60938 0.10547 0.95312 0.1875z"/>
  </symbol>
  <symbol id="r" overflow="visible">
   <path d="m3.6562-6.25v0.9375h-0.79688c-0.21094 0-0.35547 0.039062-0.4375 0.10938-0.074219 0.074219-0.10938 0.20312-0.10938 0.39062v0.3125h1.2344v1.0312h-1.2344v3.4688h-1.4375v-3.4688h-0.71875v-1.0312h0.71875v-0.3125c0-0.48828 0.13281-0.84766 0.40625-1.0781 0.26953-0.23828 0.69141-0.35938 1.2656-0.35938z"/>
  </symbol>
  <symbol id="q" overflow="visible">
   <path d="m4.8594-3.75c0.1875-0.28125 0.40625-0.49219 0.65625-0.64062 0.25-0.14453 0.52344-0.21875 0.82812-0.21875 0.50781 0 0.89844 0.16406 1.1719 0.48438 0.26953 0.3125 0.40625 0.77734 0.40625 1.3906v2.7344h-1.4375v-2.3438-0.10938-0.17188c0-0.3125-0.046875-0.53906-0.14062-0.6875-0.09375-0.14453-0.24609-0.21875-0.45312-0.21875-0.27344 0-0.48438 0.11719-0.64062 0.34375-0.14844 0.23047-0.21875 0.55469-0.21875 0.96875v2.2188h-1.4531v-2.3438c0-0.5-0.042969-0.82031-0.125-0.96875-0.085937-0.14453-0.23438-0.21875-0.45312-0.21875-0.28125 0-0.5 0.11719-0.65625 0.34375-0.14844 0.23047-0.21875 0.55469-0.21875 0.96875v2.2188h-1.4375v-4.5h1.4375v0.65625c0.17578-0.25 0.37891-0.4375 0.60938-0.5625 0.22656-0.13281 0.48438-0.20312 0.76562-0.20312 0.3125 0 0.58594 0.078125 0.82812 0.23438 0.23828 0.14844 0.41406 0.35547 0.53125 0.625z"/>
  </symbol>
  <symbol id="p" overflow="visible">
   <path d="m5.2188-2.7344v2.7344h-1.4531v-2.0938c0-0.39453-0.011719-0.66406-0.03125-0.8125-0.011719-0.14453-0.039063-0.25391-0.078125-0.32812-0.054688-0.09375-0.13281-0.16406-0.23438-0.21875-0.09375-0.050781-0.20312-0.078125-0.32812-0.078125-0.30469 0-0.54297 0.12109-0.71875 0.35938-0.16797 0.23047-0.25 0.54688-0.25 0.95312v2.2188h-1.4375v-6.25h1.4375v2.4062c0.21875-0.25781 0.44531-0.45312 0.6875-0.57812 0.25-0.125 0.51953-0.1875 0.8125-0.1875 0.51953 0 0.91406 0.16406 1.1875 0.48438 0.26953 0.3125 0.40625 0.77734 0.40625 1.3906z"/>
  </symbol>
  <symbol id="o" overflow="visible">
   <path d="m0.75-6h1.7344l2.1875 4.1094v-4.1094h1.4688v6h-1.7344l-2.1875-4.125v4.125h-1.4688z"/>
  </symbol>
  <symbol id="n" overflow="visible">
   <path d="m0.64062-1.75v-2.75h1.4531v0.45312c0 0.24219-0.007812 0.54688-0.015625 0.92188v0.73438c0 0.35547 0.007813 0.61719 0.03125 0.78125 0.019531 0.15625 0.050781 0.27344 0.09375 0.34375 0.0625 0.09375 0.14062 0.16797 0.23438 0.21875 0.09375 0.054687 0.20312 0.078125 0.32812 0.078125 0.30078 0 0.53516-0.11328 0.70312-0.34375 0.17578-0.23828 0.26562-0.5625 0.26562-0.96875v-2.2188h1.4375v4.5h-1.4375v-0.65625c-0.21875 0.27344-0.45312 0.46875-0.70312 0.59375-0.24219 0.11328-0.50781 0.17188-0.79688 0.17188-0.52344 0-0.91797-0.15625-1.1875-0.46875-0.27344-0.32031-0.40625-0.78516-0.40625-1.3906z"/>
  </symbol>
  <symbol id="m" overflow="visible">
   <path d="m0.75-6h2.5781c0.75781 0 1.3438 0.17188 1.75 0.51562 0.41406 0.33594 0.625 0.8125 0.625 1.4375 0 0.63672-0.21094 1.125-0.625 1.4688-0.40625 0.33594-0.99219 0.5-1.75 0.5h-1.0312v2.0781h-1.5469zm1.5469 1.125v1.6719h0.85938c0.30078 0 0.53125-0.070313 0.6875-0.21875 0.16406-0.14453 0.25-0.35156 0.25-0.625 0-0.26953-0.085938-0.47266-0.25-0.60938-0.15625-0.14453-0.38672-0.21875-0.6875-0.21875z"/>
  </symbol>
  <symbol id="l" overflow="visible">
   <path d="m0.6875-4.5h1.4375v4.4219c0 0.60156-0.14844 1.0625-0.4375 1.375-0.28125 0.32031-0.69922 0.48438-1.25 0.48438h-0.70312v-0.95312h0.23438c0.28125 0 0.46875-0.0625 0.5625-0.1875 0.10156-0.11719 0.15625-0.35547 0.15625-0.71875zm0-1.75h1.4375v1.1719h-1.4375z"/>
  </symbol>
 </defs>
 <g>
  <path d="m110.04 181.92c0.69922 0.74219 1.5898 1.2773 2.5703 1.5508l159.38 44.578h0.003907c-12.359 5.1289-23.355 13.07-32.109 23.191-8.9961 10.262-15.934 22.156-20.438 35.035-0.45703 1.4805-0.28906 3.0781 0.46484 4.4258 0.75781 1.3516 2.0312 2.332 3.5312 2.7148 3.4062 0.87109 6.668 1.8828 9.8125 2.9883l-77.211 68.547c-6.375 0.17188-12.727 0.80469-19.008 1.8945-1.6602 0.32422-3.0859 1.3711-3.8906 2.8555-0.80078 1.4883-0.89844 3.2539-0.25781 4.8203 9.1797 22.746 22.379 43.66 38.969 61.73-4.8633 5.5352-10.066 10.762-15.578 15.648-43.879 38.824-47.043 81.703-47.156 83.508-0.097656 1.5547 0.45312 3.0781 1.5195 4.2148 1.0664 1.1367 2.5547 1.7812 4.1133 1.7773h171.06 0.0625 0.0625 248.48c1.5664 0 3.0586-0.64844 4.125-1.793 1.0703-1.1406 1.6133-2.6758 1.5078-4.2383-2.1836-25.785-6.0977-51.391-11.715-76.652 7.957 5.6094 16.613 10.16 25.746 13.535 1.5586 0.58594 3.2969 0.45312 4.75-0.35938 1.4492-0.81641 2.4688-2.2305 2.7773-3.8672 0.50781-2.6523 12.09-65.043 3.3477-157.55l13.566 4.9961h0.003906c6.9688 2.5664 14.75 1.5625 20.844-2.6836 6.0898-4.2461 9.7266-11.199 9.7344-18.625-0.003906-4.2578-1.332-8.4102-3.8047-11.879-2.4688-3.4688-5.9609-6.082-9.9844-7.4766l-24.426-8.4453-0.003907 0.003907c-0.55078-6.8203-4.1602-13.023-9.8164-16.867-12.211-8.4961-26.008-14.438-40.566-17.469-2.5703-0.51953-5.207-0.61719-7.8086-0.29688l4.832-31.445c0.41016-2.668-1.1289-5.2578-3.6719-6.168l-5.0391-1.8125c-4.9336-1.7539-10.348-1.5742-15.148 0.50391-4.8047 2.0781-8.6406 5.9023-10.738 10.695l-9.6641 22.223-48.52-13.664v0.003906c1.6133-4.6055 2.6328-9.3984 3.0352-14.262 1.0117-12.168 3.2773-41.805 3.5625-66.578l0.003907 0.003906c7.2852 0.76172 14.621 0.94531 21.934 0.54688 1.6094-0.085938 3.1094-0.85547 4.1133-2.1133 1.0078-1.2578 1.4297-2.8867 1.1602-4.4766-1.0859-5.3008-2.8945-10.426-5.3867-15.23 8.1289-0.24219 19-2.9258 29.969-12.676 1.5781-1.4062 2.2383-3.5742 1.7109-5.625-0.52734-2.0469-2.1562-3.625-4.2188-4.0898-0.10547-0.023437-10.543-2.5273-16.754-9.4805-0.89844-1.0039-1.9375-2.2383-3.1094-3.625-7.2461-8.582-19.48-23.059-35.906-30.207 3.5312-3.1055 6.5312-6.7656 8.8789-10.84 1.0312-1.7617 1.0273-3.9414-0.003906-5.6992-1.0352-1.7617-2.9336-2.8242-4.9766-2.7891-4.1875 0.074218-16.723-0.39844-24.297-3.5195-0.125-0.050781-0.25-0.097656-0.375-0.13672-0.53125-0.17969-52.641-16.73-77.777 34.719-9.8203 1.6211-36.375 9.5078-43.93 47.559-0.24219 1.2578-5.3984 29.891 16.996 48.078-1.8555 13.145 0.046876 32.684 17.328 37.031h0.003906c4.5664 1.0625 9.3516 0.625 13.645-1.25v25.312l-174.11-45.395-9.8359-21.906 140.38 39.531c3.0039 0.84375 6.1211-0.90625 6.9648-3.9062 0.84766-3.0039-0.90234-6.1211-3.9023-6.9648l-156.53-44.074c-0.63672-0.17969-1.3008-0.24609-1.957-0.19531-0.64453 0.046875-16.051 1.3281-37.387 12.117h-0.003907c-2.375 1.207-3.582 3.9141-2.8945 6.4883 3.707 12.453 10.191 23.91 18.961 33.5zm459.21 112.74 1.0977-16.539 21.289 7.3555c3.7031 1.2812 6.1836 4.7695 6.1875 8.6875 0 3.7383-1.8281 7.2422-4.8945 9.3789-3.0664 2.1406-6.9844 2.6445-10.496 1.3555l-14.164-5.2188c0.53516-1.6289 0.86328-3.3125 0.98047-5.0195zm-300.65 68.27c0.90234 3.4883 0.89063 7.1523-0.03125 10.637-3.9375 15.668-10.84 30.434-20.332 43.504-6.6172-7.5859-12.348-15.898-17.086-24.781-1.3672-2.7148-3.0898-5.2383-5.1211-7.5l39.242-35.367c0.90625 3.8789 2.0156 8.4336 3.3281 13.508zm232.07 46.613c-15.465-8.9219-37.254-22.207-54.684-35.551v-0.003907c7.2109-11.016 13.195-22.789 17.844-35.109 12.262 9.418 25.086 18.074 38.402 25.918-0.89062 14.684-1.5078 30.039-1.5703 44.738zm5.3906-92.473c-0.98828 10.102-2.0625 22.133-2.9883 35.043-13.34-8.1797-31.391-20.133-42.852-31.262 2.3828-24.344-9.8008-36.34-17.996-41.566v-0.003906c-2.0664-1.3242-3.8438-3.0508-5.2266-5.0781l26.906 7.5273 1.2969 23.277h-0.003906c0.25391 4.918 2.2656 9.582 5.6719 13.137 3.4023 3.5586 7.9727 5.7773 12.875 6.2461l9.1758 0.92188c0.1875 0.019531 0.37891 0.027344 0.57031 0.03125 2.7852-0.003906 5.1484-2.0391 5.5703-4.7891l3.3555-21.848c1.6797 1.0938 3.375 2.1055 5.0664 3.0586zm-108.83-57.312c-1.0273 6.0312-4.2852 11.453-9.1211 15.195-2.375 1.8398-5.2031 2.9922-8.1836 3.3398-2.9805 0.34766-6-0.12109-8.7305-1.3633-8.7734-3.8555-16.363-9.9805-21.98-17.746-1.9531-2.6758-3.5508-5.5938-4.7539-8.6836-0.35547-3.0195-1.1484-5.9727-2.3516-8.7656-0.30078-1.9883-0.45312-3.9961-0.45703-6.0078v-25.766c0.91797 0.82031 1.8789 1.5938 2.8828 2.3047 12.152 8.418 25.492 14.977 39.582 19.461 0.12109 15.672 8.2578 24.289 13.113 28.031zm-55.367 8.3359c6.5703 8.3281 15.086 14.914 24.797 19.18 3.6055 1.5859 7.5 2.4062 11.438 2.4141 6.168 0.011719 12.164-2.0586 17.008-5.875 6.7109-5.2344 11.328-12.695 13.02-21.039 3.625 0.22266 7.125 1.3945 10.152 3.4062 2.7031 2.1055 4.793 4.9023 6.043 8.0938 2.3125 5.9688 6.4531 11.051 11.828 14.52 3.0195 1.9102 5.6328 4.3906 7.7031 7.3008-7.4141 22.344-21.859 41.684-41.176 55.137-5.8008 3.8984-13.223 4.4609-19.543 1.4805-3.9805-1.8711-7.8594-3.9141-11.531-6.0742v0.003906c-2.6836-1.582-6.1445-0.68359-7.7227 2.0039-1.582 2.6875-0.68359 6.1445 2.0039 7.7266 3.9609 2.332 8.1523 4.5391 12.445 6.5586h-0.003906c9.9375 4.6602 21.594 3.7617 30.695-2.3711 17.355-11.926 31.223-28.258 40.18-47.316 0.12109 5.3125-0.48828 10.613-1.8125 15.762-0.10156 0.42188-10.512 42.254-49.383 63.66-4.7461 2.6016-10.434 2.8594-15.391 0.69141-29.965-13.234-54.719-33.863-71.594-59.652l-6.6992-11.086v-0.003907c10.926-8.5586 20.113-19.133 27.066-31.145 10.227 12.902 22.469 24.066 36.258 33.062 5.2305 3.3086 11.293 5.0625 17.48 5.0625 8.9336 0.023438 17.477-3.6641 23.586-10.18 4.7891-5.0469 8.793-10.781 11.883-17.016 0.68359-1.3477 0.79297-2.9141 0.30859-4.3477-0.48438-1.4336-1.5234-2.6133-2.8828-3.2734s-2.9297-0.74609-4.3555-0.23828c-1.4258 0.50781-2.5859 1.5625-3.2266 2.9336-2.5938 5.2148-5.957 10.016-9.9766 14.234-3.3867 3.5742-7.9141 5.8555-12.805 6.457-4.8906 0.59766-9.8359-0.52734-13.988-3.1758-18.598-11.738-31.922-28.352-36.566-34.605l0.003907-0.003906c1.8008-4.0078 3.3867-8.1094 4.7578-12.285zm-26.617-34.211c4.168 0.50391 8.082 2.2695 11.223 5.0547 0.48047 0.875 6.3242 12.23-3.9023 26.363v0.003907c-5.2461 6.8242-11.219 13.059-17.809 18.594-4.8984 4.3086-10.922 7.125-17.367 8.125s-13.039 0.14062-19.012-2.4805c-12.094-5.4141-22.996-16.02-14.59-36.664 13.25-12.426 32.996-22.41 61.457-18.996zm-90.309 84.988c17.043 1.9531 31.406 6.2578 42.328 13.551l-50.211 45.262c-14.551-8.043-30.547-11.324-44.402-12.391zm-78.715 58.102c7.7148-0.78125 15.48-0.95312 23.223-0.50781 1.5547 0.26953 23.094 4.2734 33.215 21.617h0.003906c10.262 17.531 22.742 33.668 37.133 48.008-6.6836 4.3164-12.621 9.6875-17.582 15.91-12.594-6.875-51.965-31.789-75.992-85.027zm-24.934 153.15c2.4609-12.453 11.363-42.242 42.469-69.766 1.1094-0.98828 2.1953-1.9883 3.2812-2.9961v0.011719s14.73 16 30.602 25.062h0.003906c-6.625 12.008-11.543 24.879-14.617 38.242-1.3203 5.5469-6.2773 9.457-11.977 9.4453zm159.54-46.238-0.51953 16.074v0.089843c0 0.03125-0.011719 0.0625-0.011719 0.09375v25.809l-0.050781 4.1719h-5.0469c-7.7109-0.007812-15.105-3.0742-20.559-8.5273-5.457-5.457-8.5234-12.848-8.5312-20.562-0.003907-9.3164-3.3164-18.328-9.3438-25.434l-5.6445-6.6484v0.003906c7.9883-9.6484 18.48-16.914 30.32-20.992l8.0312 7.8516 0.003906-0.003906c7.3594 7.2266 11.457 17.137 11.352 27.449zm143.39 46.238h-29.957v-24.34h29.949zm0-80.797v45.172h-132.24l0.12891-10.328 2.0195-62.309c1.2031-37.203 20.242-47.141 20.242-47.141l-0.011719-0.019531c23.566 26.102 47.5 38.332 60.82 43.578v-0.003906c6.8398 2.7188 14.469 2.6484 21.258-0.19922 12.359-5.4102 23.512-13.242 32.793-23.035-0.44141 3.7891-0.86719 7.0469-1.2344 9.25-2.5 14.883-3.7656 29.945-3.7852 45.035zm84.176 80.797h-0.003907c-5.5-0.019531-10.023-4.3398-10.297-9.832-1.4453-25.715-5.0469-51.266-10.766-76.379l29.527 15.121c5.293 23.434 9.1133 47.18 11.438 71.094zm13.199-92.43c-6.2852-7.1992-9.7109-16.453-9.6406-26.008 0.011719-29.277 2.3711-61.602 4.6133-85.812 2.2969 1.2188 5.3711 2.8281 8.9375 4.6406 1.9023 1.0234 16.02 9.9727 15.703 50.453 0 0 0.36719 52.266-4.1406 70.074v0.003906c-5.7148-3.7617-10.918-8.25-15.48-13.352zm-13.305-192.62c2.1406-1.4805 4.6797-2.2656 7.2773-2.2617 0.90234 0 1.8047 0.089844 2.6875 0.27344 13.062 2.7227 25.438 8.0547 36.387 15.68 3.332 2.2188 5.2383 6.0312 5.0156 10.027l-1.668 25.113c-0.19141 2.6836-1.5078 5.1562-3.6289 6.8086-2.4219 1.9141-5.5352 2.7305-8.5859 2.25-14.246-2.043-27.832-7.3242-39.719-15.434-2.375-1.6406-3.8711-4.2773-4.0547-7.1602-0.55469-9.2227-0.11328-18.48 1.3164-27.609 0.53516-3.1367 2.332-5.9141 4.9727-7.6875zm-14.988-37.066c3.6484-7.6484 12.383-4.8359 12.383-4.8359s-11.941 37.094-14.164 53.352c-0.019531 0.13672-0.035157 0.29687-0.054688 0.44141l-17.844-3.7188zm-40.781 23.602-9.1133 11.59-37.168-8.0898c3.0234-0.91797 5.7344-2.6445 7.8516-4.9922 1.3164-1.4609 2.5508-2.9961 3.6992-4.5938 0.72656-1.0078 1.4141-2.0469 2.0703-3.1094zm-132.65-53.797c-0.12109-0.039062-0.24219-0.074219-0.36328-0.10547-12.324-3.082-9.0586-23.883-8.5078-26.965h-0.003906c0.71484-1.668 1.7422-3.1875 3.0273-4.4727 2.1445-2.1094 5.1172-3.1523 8.1094-2.8477 2.8438 0.23438 5.4336 1.7266 7.0664 4.0664 1.3047 1.9844 1.9844 4.3125 1.957 6.6875 0.035157 1.7188 0.85156 3.3242 2.2148 4.3672s3.1289 1.4062 4.7969 0.98828c0.62891-0.15625 13.25-3.4961 19.469-18.559l1.5195 1.375c1.5977 1.4492 3.8828 1.8633 5.8867 1.0586 0.83203-0.32812 17.152-7.1797 19.496-30.754 7.2812 6.3125 18.656 13.195 35.555 16.801-0.054687 7.0469-0.28516 14.559-0.60547 21.98-3.668 1.0195-6.8945 2.0703-7.082 2.1289h-0.003906c-1.4414 0.45312-2.6406 1.4609-3.332 2.8047-0.69141 1.3398-0.81641 2.9062-0.34766 4.3398 0.47266 1.4375 1.4961 2.6211 2.8477 3.2969 1.3516 0.67188 2.918 0.77734 4.3477 0.28516 0.023438 0 1.2383-0.40234 2.9648-0.92969-0.78516 14.055-1.7656 26.613-2.3398 33.508v0.003906c-0.63672 9.5391-4.457 18.59-10.855 25.695-1.4609 1.6445-3.7031 2.3594-5.8477 1.8633-17.473-3.9844-34.031-11.242-48.805-21.387-4.6992-3.2891-7.8555-8.3516-8.7383-14.02-0.33594-2.2734-0.55078-4.5664-0.64453-6.8633v-5.7188c-0.83984-5.7539-6.5078-6.4883-9.8203-3.7969-5.9492 6.5547-11.469 5.293-11.961 5.168zm-188.53-36.641 9.6602 22.18-23.789 9.6797v-0.003906c-5.9297-6.8281-10.586-14.668-13.738-23.145 8.8203-4.2344 18.207-7.168 27.867-8.7109z"/>
  <path d="m345.87 325.56c-1.9844-2.4023-5.5391-2.7461-7.9453-0.76172-2.4023 1.9844-2.7461 5.5391-0.76172 7.9453 0.75781 0.91797 1.5312 1.8164 2.3242 2.6992v-0.003906c2.0938 2.2969 5.6445 2.4727 7.9531 0.39453 2.3086-2.082 2.5-5.6367 0.42969-7.9531-0.68359-0.75781-1.3477-1.5312-2-2.3203z"/>
  <path d="m379.69 162.28c0.046875 0.011718 4.8242 1.0117 8.8516 2.1016 2.9922 0.76172 6.043-1.0156 6.8477-3.9961 0.80469-2.9805-0.93359-6.0547-3.9023-6.9023-4.3477-1.1758-9.2773-2.2109-9.4844-2.2539-3.0195-0.5625-5.9375 1.3906-6.5625 4.3945-0.62891 3.0078 1.2656 5.9648 4.2578 6.6562z"/>
 </g>
</svg>
