<svg width="410" height="140" viewBox="0 0 610 208" fill="none" xmlns="http://www.w3.org/2000/svg">
<rect width="610" height="208" fill="black"/>
<path d="M236.47 75.6437C236.47 75.6441 236.47 75.6446 236.47 75.6449C236.67 75.8566 236.924 76.0092 237.204 76.0873L282.721 88.8185C282.722 88.8185 282.722 88.8185 282.722 88.8185V88.8185C282.722 88.8185 282.722 88.8188 282.722 88.8189C279.192 90.2837 276.052 92.5514 273.553 95.4416C270.983 98.3724 269.002 101.769 267.716 105.447C267.585 105.87 267.633 106.326 267.848 106.711C268.065 107.097 268.428 107.377 268.857 107.487V107.487C270.131 107.813 270.451 109.413 269.468 110.286L253.504 124.458C250.988 126.692 247.746 127.863 244.427 128.416C244.345 128.429 244.262 128.443 244.18 128.458C243.706 128.55 243.298 128.849 243.069 129.273C242.84 129.698 242.812 130.203 242.995 130.65C244.828 135.192 247.222 139.478 250.116 143.41C252.244 146.3 252.361 150.368 249.675 152.748V152.748C237.144 163.836 236.24 176.082 236.208 176.598C236.18 177.042 236.337 177.477 236.642 177.802C236.946 178.126 237.371 178.31 237.817 178.309H286.67H286.688H286.706H357.67C358.117 178.309 358.543 178.124 358.848 177.797C359.154 177.471 359.309 177.033 359.279 176.587C358.889 171.99 358.308 167.414 357.535 162.869C357.042 159.967 360.524 157.54 363.286 158.561V158.561C363.731 158.728 364.227 158.69 364.642 158.458C365.056 158.225 365.347 157.821 365.435 157.354C365.574 156.632 368.581 140.432 366.709 116.064C366.577 114.349 368.261 113.047 369.875 113.641L370.265 113.785C370.266 113.785 370.266 113.785 370.266 113.785V113.785C370.267 113.785 370.267 113.785 370.268 113.786C372.258 114.518 374.48 114.232 376.22 113.019C377.959 111.806 378.998 109.821 379 107.7C378.999 106.484 378.62 105.298 377.913 104.307C377.208 103.317 376.211 102.57 375.062 102.172L368.086 99.7602C368.086 99.7601 368.086 99.7602 368.086 99.7603V99.7603C368.085 99.7607 368.085 99.7605 368.085 99.76C367.927 97.8126 366.896 96.0417 365.281 94.9441C361.794 92.5177 357.854 90.8207 353.696 89.9551V89.9551C352.594 89.7323 351.636 88.7667 351.806 87.655L352.846 80.8898C352.963 80.1279 352.524 79.3883 351.797 79.1283L350.358 78.6107C348.949 78.1098 347.403 78.1611 346.032 78.7546C344.66 79.3481 343.564 80.4402 342.965 81.809L342.49 82.9025C341.181 85.9121 337.85 87.4925 334.691 86.6029L326.349 84.2534C326.348 84.2534 326.348 84.2535 326.348 84.2536V84.2536C326.348 84.2538 326.349 84.2538 326.349 84.2536C326.809 82.9386 327.1 81.5701 327.215 80.1814C327.504 76.7065 328.151 68.2433 328.233 61.1685C328.233 61.168 328.233 61.1678 328.234 61.1681V61.1681C328.234 61.1682 328.234 61.1683 328.234 61.1683C330.314 61.3858 332.409 61.4383 334.498 61.3245C334.958 61.2999 335.386 61.0802 335.673 60.7209C335.96 60.3617 336.081 59.8965 336.004 59.4424V59.4424C335.574 57.343 336.985 54.9335 338.957 54.0942C340.264 53.5379 341.642 52.7019 343.025 51.4727C343.475 51.0711 343.664 50.4519 343.513 49.8662C343.363 49.2817 342.897 48.831 342.308 48.6982C342.278 48.6915 339.297 47.9764 337.523 45.9906C337.267 45.7039 336.97 45.3514 336.635 44.9554C335.116 43.1553 332.827 40.447 329.861 38.3268C328.339 37.2391 327.983 34.8535 328.917 33.2326V33.2326C329.211 32.7295 329.21 32.107 328.916 31.605C328.62 31.1019 328.078 30.7984 327.494 30.8084C326.298 30.8296 322.718 30.6947 320.555 29.8033C320.52 29.7888 320.484 29.7754 320.448 29.7643C320.382 29.7418 317.493 28.8236 313.664 29.0303C301.296 29.6976 288.102 41.1131 285.69 53.2623V53.2623C285.656 53.4337 285.304 55.385 285.639 57.9428C286.49 64.4347 288.031 72.8717 293.393 76.6279C293.983 77.041 294.678 77.3638 295.492 77.5686C295.492 77.5687 295.492 77.5688 295.493 77.5688V77.5688C295.493 77.5688 295.493 77.5688 295.494 77.5689C295.584 77.5899 295.675 77.6089 295.766 77.6258C297.483 77.9453 299.39 79.1675 299.39 80.9144V81.1257C299.39 82.8028 297.805 84.0275 296.182 83.6044L250.88 71.7928C250.112 71.5926 249.477 71.0553 249.152 70.3316V70.3316C248.242 68.3045 250.111 66.1365 252.25 66.7388L286.948 76.5098C287.806 76.7508 288.696 76.251 288.937 75.3942C289.179 74.5363 288.68 73.6461 287.823 73.4051L243.119 60.8179C242.937 60.7666 242.747 60.7476 242.56 60.7621C242.376 60.7755 237.976 61.1414 231.883 64.2224C231.883 64.2226 231.882 64.2227 231.882 64.2227V64.2227C231.882 64.2227 231.881 64.2228 231.881 64.2229C231.203 64.5678 230.858 65.3407 231.055 66.0757C232.113 69.6319 233.965 72.9038 236.469 75.6425C236.47 75.6429 236.47 75.6433 236.47 75.6437V75.6437ZM367.617 107.842C367.617 107.842 367.617 107.842 367.617 107.842L367.722 106.252C367.827 104.674 369.403 103.628 370.898 104.144L374.01 105.219C375.068 105.585 375.776 106.582 375.777 107.7C375.777 108.768 375.255 109.769 374.38 110.379C373.504 110.99 372.385 111.134 371.382 110.766L368.15 109.575C367.696 109.408 367.464 108.912 367.546 108.436C367.579 108.24 367.603 108.041 367.617 107.842C367.617 107.842 367.617 107.842 367.617 107.842V107.842ZM281.753 127.34C281.753 127.34 281.753 127.34 281.753 127.34C282.011 128.336 282.008 129.382 281.744 130.377C281.322 132.057 280.781 133.701 280.125 135.296C278.45 139.376 273.133 139.615 271.058 135.725V135.725V135.725C270.412 134.441 270.46 132.803 271.528 131.841L279.924 124.274C280.319 123.918 280.951 124.116 281.076 124.633C281.276 125.46 281.501 126.366 281.753 127.34C281.753 127.34 281.753 127.34 281.753 127.34V127.34ZM348.029 140.65C348.029 140.65 348.029 140.651 348.028 140.65C343.612 138.102 337.391 134.309 332.414 130.499C332.414 130.499 332.413 130.499 332.413 130.498V130.498C332.413 130.498 332.414 130.498 332.414 130.497C332.809 129.893 333.192 129.28 333.562 128.66C335.882 124.768 341.14 123.257 344.954 125.706V125.706C347.09 127.077 348.372 129.467 348.257 132.003C348.125 134.893 348.041 137.814 348.028 140.649C348.028 140.65 348.029 140.65 348.029 140.65V140.65ZM349.57 114.242V114.242C349.125 118.799 344.038 121.405 340.395 118.633C339.939 118.287 339.493 117.938 339.06 117.588C337.371 116.223 336.716 114.048 336.471 111.89C335.939 107.195 333.257 104.674 331.34 103.451C331.339 103.451 331.339 103.451 331.339 103.451V103.451C331.339 103.45 331.339 103.45 331.339 103.45C331.241 103.387 331.145 103.321 331.052 103.252C330.574 102.899 330.956 102.31 331.529 102.47L335.94 103.705C336.891 103.971 337.568 104.812 337.623 105.798L337.901 110.797C337.901 110.797 337.901 110.797 337.9 110.797V110.797C337.9 110.797 337.9 110.798 337.9 110.798C337.973 112.202 338.547 113.534 339.52 114.549C340.491 115.565 341.797 116.199 343.197 116.333L345.817 116.596C345.871 116.602 345.926 116.604 345.98 116.605C346.776 116.604 347.451 116.023 347.571 115.237L348.348 110.176C348.433 109.624 349.066 109.344 349.549 109.626V109.626C349.811 109.779 349.958 110.066 349.93 110.368L349.57 114.242ZM318.489 97.8744C318.196 99.5968 317.265 101.145 315.884 102.214C315.206 102.739 314.398 103.069 313.547 103.168C312.696 103.267 311.834 103.133 311.054 102.778C308.548 101.677 306.381 99.9281 304.776 97.7103C304.473 97.2948 304.2 96.8588 303.958 96.4056C303.554 95.6474 303.398 94.7906 303.175 93.9606V93.9606C302.951 93.1224 302.657 92.2935 302.625 91.4264C302.62 91.2881 302.617 91.1497 302.617 91.0112V84.7072C302.617 84.2994 303.107 84.0751 303.44 84.3108V84.3108C305.498 85.7367 307.676 86.9759 309.947 88.0154C312.738 89.2929 314.495 92.1128 315.931 94.8256C316.718 96.3133 317.74 97.2967 318.489 97.874C318.489 97.8741 318.489 97.8742 318.489 97.8744V97.8744ZM302.677 100.255C302.677 100.255 302.677 100.255 302.677 100.255C304.553 102.634 306.985 104.514 309.759 105.733C310.788 106.186 311.901 106.42 313.025 106.422C314.787 106.426 316.499 105.834 317.883 104.744C318.978 103.89 319.879 102.827 320.539 101.629C321.395 100.075 323.023 98.7268 324.5 99.7085V99.7085C325.272 100.31 325.869 101.109 326.226 102.02C326.887 103.725 328.069 105.176 329.604 106.167V106.167C331.224 107.192 331.482 109.343 330.703 111.095C328.402 116.271 324.724 120.74 320.045 123.999C318.388 125.112 316.268 125.273 314.463 124.421C313.327 123.887 312.219 123.304 311.171 122.687C311.17 122.687 311.17 122.687 311.17 122.687V122.687C311.17 122.688 311.17 122.688 311.17 122.688C310.403 122.236 309.415 122.493 308.965 123.26C308.513 124.028 308.769 125.015 309.537 125.467C310.668 126.133 311.865 126.763 313.091 127.34C313.091 127.34 313.091 127.34 313.091 127.34V127.34C313.09 127.34 313.09 127.34 313.09 127.34C315.928 128.671 319.257 128.414 321.856 126.663C325.559 124.118 328.707 120.871 331.128 117.122C331.741 116.173 333.095 116.557 332.814 117.651V117.651C332.785 117.772 329.812 129.719 318.71 135.832C317.355 136.575 315.73 136.649 314.315 136.029C305.757 132.25 298.687 126.358 293.868 118.993L291.955 115.828C291.955 115.827 291.955 115.827 291.955 115.827V115.827C291.955 115.826 291.955 115.826 291.955 115.826C292.731 115.218 293.476 114.575 294.188 113.899C297.288 110.955 302.608 110.557 305.887 113.299C307.208 114.404 308.594 115.43 310.04 116.374C311.533 117.318 313.265 117.819 315.032 117.819C317.583 117.826 320.023 116.773 321.768 114.912C323.136 113.471 324.279 111.833 325.161 110.052C325.357 109.667 325.388 109.22 325.25 108.811C325.111 108.401 324.815 108.064 324.426 107.876C324.038 107.687 323.59 107.663 323.182 107.808C322.775 107.953 322.444 108.254 322.261 108.646C321.52 110.135 320.56 111.506 319.412 112.711C318.444 113.731 317.151 114.383 315.755 114.555C314.358 114.725 312.946 114.404 311.76 113.648C306.449 110.296 302.644 105.552 301.318 103.766C301.317 103.765 301.317 103.764 301.318 103.764V103.764C301.318 103.764 301.318 103.764 301.318 103.763C301.832 102.619 302.285 101.448 302.677 100.255C302.677 100.255 302.677 100.255 302.677 100.255V100.255ZM295.075 90.4847C295.075 90.4846 295.075 90.4846 295.075 90.4846C295.758 90.5671 296.416 90.7681 297.023 91.0744C297.923 91.5289 298.57 92.3785 298.761 93.369C299.024 94.7357 298.986 96.9423 297.166 99.4569C297.166 99.4571 297.166 99.4575 297.166 99.4579V99.4579C297.166 99.4582 297.166 99.4586 297.166 99.4589C295.667 101.408 293.962 103.188 292.08 104.769C290.681 105.999 288.961 106.804 287.12 107.089C285.279 107.375 283.396 107.129 281.69 106.381C280.608 105.896 279.558 105.266 278.702 104.447C274.309 100.248 279.598 93.079 285.396 91.2575C288.139 90.3956 291.345 90.0372 295.075 90.4847C295.075 90.4847 295.075 90.4847 295.075 90.4847V90.4847ZM266.903 116.87C268.418 115.525 270.813 114.904 272.798 115.306V115.306C277.525 116.264 277.893 121.763 274.311 124.992L269.321 129.49C267.951 130.725 265.796 130.844 264.082 130.163V130.163C260.536 128.755 259.114 123.786 261.967 121.253L266.903 116.87ZM246.803 131.35C246.803 131.35 246.803 131.35 246.803 131.35C249.007 131.127 251.224 131.078 253.435 131.205C253.879 131.282 260.031 132.425 262.921 137.378C262.921 137.379 262.922 137.379 262.922 137.379V137.379C262.922 137.379 262.923 137.379 262.923 137.379C265.17 141.218 267.79 144.823 270.743 148.143C272.129 149.7 271.856 152.157 270.355 153.603V153.603C269.211 154.705 267.487 155.088 266.154 154.226C261.316 151.1 252.532 144.044 246.803 131.35C246.803 131.35 246.803 131.35 246.803 131.35V131.35ZM253.894 175.088C246.535 175.089 241.181 168.209 245.443 162.21C247.083 159.903 249.166 157.505 251.811 155.164C252.127 154.882 252.437 154.597 252.746 154.31C252.747 154.31 252.748 154.31 252.748 154.311V154.311C252.748 154.312 252.748 154.311 252.748 154.312C252.755 154.319 256.959 158.883 261.488 161.469C261.488 161.469 261.488 161.469 261.488 161.469V161.469C261.488 161.469 261.489 161.47 261.488 161.47C259.597 164.899 258.192 168.575 257.314 172.391C256.937 173.975 255.522 175.092 253.894 175.088V175.088ZM285.246 161.883L285.097 166.474V166.5C285.097 166.509 285.094 166.518 285.094 166.526V173.897V173.897C285.086 174.558 284.548 175.089 283.888 175.089H283.638C281.436 175.087 279.324 174.211 277.767 172.653C276.208 171.095 275.332 168.984 275.33 166.781C275.329 164.12 274.383 161.547 272.662 159.517L271.05 157.619C271.05 157.619 271.05 157.619 271.05 157.619V157.619C271.05 157.619 271.05 157.619 271.05 157.619C273.069 155.181 275.647 153.276 278.557 152.063C279.254 151.772 280.05 151.958 280.59 152.486L282.002 153.866C282.002 153.867 282.003 153.867 282.003 153.866V153.866C282.003 153.866 282.004 153.866 282.004 153.866C284.106 155.93 285.276 158.76 285.246 161.705L285.246 161.883ZM326.196 171.612C326.196 173.532 324.64 175.089 322.72 175.089H321.117C319.197 175.089 317.641 173.533 317.641 171.613V171.613C317.641 169.693 319.197 168.137 321.117 168.137H322.72C324.639 168.137 326.195 169.693 326.196 171.612V171.612ZM326.195 152.014C326.196 152.014 326.197 152.014 326.197 152.015V158.256C326.197 161.933 323.216 164.914 319.538 164.914H291.38C289.757 164.914 288.447 163.588 288.467 161.965V161.965L289.044 144.17C289.387 133.556 294.813 130.713 294.825 130.707C294.825 130.707 294.824 130.706 294.824 130.706V130.706C294.824 130.706 294.825 130.705 294.825 130.706C301.554 138.157 308.387 141.648 312.19 143.146C312.191 143.147 312.191 143.146 312.191 143.146V143.146C312.191 143.146 312.191 143.146 312.192 143.146C314.145 143.922 316.323 143.902 318.262 143.089C320.976 141.901 323.487 140.303 325.707 138.357C326.349 137.795 327.415 138.31 327.275 139.152V139.152C326.561 143.402 326.2 147.703 326.194 152.012C326.194 152.013 326.195 152.013 326.195 152.014V152.014ZM350.237 175.089H350.236C348.665 175.083 347.373 173.849 347.295 172.281C347.028 167.526 346.502 162.79 345.722 158.095C345.216 155.055 348.398 152.607 351.141 154.012V154.012C352.099 154.502 352.792 155.392 353.019 156.445C353.944 160.746 354.695 165.083 355.272 169.444C355.671 172.463 353.282 175.089 350.237 175.089V175.089ZM354.005 148.691C354.006 148.691 354.006 148.691 354.006 148.691C352.211 146.635 351.233 143.992 351.253 141.264C351.256 134.01 351.764 126.102 352.316 119.62C352.432 118.257 353.904 117.462 355.123 118.082V118.082C355.661 118.371 359.61 120.874 359.609 132.113C359.609 132.361 359.609 132.614 359.609 132.862C359.615 135.195 359.592 147.893 358.425 152.503C358.425 152.503 358.425 152.503 358.425 152.503V152.503C358.425 152.504 358.425 152.504 358.424 152.504C356.793 151.43 355.308 150.148 354.005 148.692C354.005 148.692 354.005 148.691 354.005 148.691V148.691ZM350.207 93.6804C350.207 93.6804 350.207 93.6804 350.207 93.6804C350.818 93.2576 351.543 93.0334 352.285 93.0345C352.543 93.0345 352.8 93.0602 353.053 93.1126C356.783 93.8902 360.317 95.413 363.444 97.5907C364.396 98.2244 364.94 99.3131 364.877 100.454L364.4 107.626C364.346 108.393 363.97 109.099 363.364 109.571C362.672 110.118 361.783 110.351 360.912 110.213C356.843 109.63 352.963 108.122 349.569 105.806C348.89 105.337 348.463 104.584 348.411 103.761C348.252 101.127 348.378 98.483 348.786 95.8758C348.939 94.98 349.452 94.1868 350.207 93.6803C350.207 93.6803 350.207 93.6803 350.207 93.6804V93.6804ZM345.926 83.0946V83.0946C346.915 81.0223 348.895 83.4836 348.238 85.6836C347.193 89.1836 345.801 94.1497 345.418 96.9505V96.9505C345.408 97.0184 345.345 97.0646 345.278 97.0506L343.026 96.5813C341.623 96.2889 340.842 94.7811 341.414 93.4668L345.926 83.0946ZM331.422 89.0309C332.783 89.414 333.319 91.0569 332.445 92.1683V92.1683C331.975 92.7659 331.205 93.0426 330.462 92.8809L323.69 91.4069C322.985 91.2535 322.821 89.9449 323.304 89.4091V89.4091C323.68 88.9919 324.033 88.5534 324.361 88.0971V88.0971C324.73 87.5847 325.371 87.3271 325.979 87.4983L331.422 89.0309ZM296.396 74.4709C296.396 74.471 296.395 74.4711 296.395 74.4711C296.361 74.4599 296.326 74.4499 296.292 74.441C292.773 73.561 293.704 67.6221 293.862 66.7404C293.862 66.7402 293.862 66.74 293.862 66.74V66.74C293.861 66.74 293.861 66.7397 293.861 66.7394C294.065 66.2633 294.359 65.8295 294.725 65.4627C295.338 64.8602 296.187 64.5624 297.041 64.6494C297.854 64.7163 298.593 65.1425 299.06 65.8107C299.432 66.3774 299.626 67.0423 299.618 67.7206C299.629 68.2115 299.862 68.67 300.251 68.9678C300.64 69.2657 301.145 69.3694 301.621 69.2501C301.793 69.2074 305.102 68.3319 306.943 64.4858C307.066 64.2287 307.404 64.1512 307.615 64.3425V64.3425C308.071 64.7563 308.724 64.8746 309.296 64.6448C309.407 64.601 310.485 64.1502 311.669 62.9951C314.068 60.6551 318.026 58.3538 321.162 59.5373V59.5373C322.971 60.2201 325.011 62.0479 324.954 63.9806C324.942 64.3834 324.929 64.788 324.914 65.1932C324.877 66.2333 324.165 67.1222 323.172 67.4343C322.97 67.4976 322.844 67.5388 322.823 67.5451C322.823 67.5452 322.823 67.5452 322.822 67.5452V67.5452C322.822 67.5452 322.822 67.5453 322.821 67.5454C322.41 67.6749 322.068 67.9626 321.87 68.3463C321.673 68.7289 321.637 69.1762 321.771 69.5857C321.906 69.9962 322.198 70.3342 322.584 70.5272C322.943 70.7053 323.354 70.7441 323.737 70.6363C323.797 70.6197 323.78 70.623 323.839 70.605V70.605C324.208 70.4922 324.65 70.7517 324.627 71.1366C324.412 74.8263 324.158 78.0744 324.004 79.9128V79.9139C323.823 82.6382 322.732 85.2231 320.904 87.2522C320.487 87.7219 319.847 87.9261 319.234 87.7844C314.244 86.6465 309.515 84.5737 305.296 81.6764C303.954 80.7371 303.052 79.2912 302.8 77.6724C302.704 77.0231 302.643 76.3683 302.616 75.7123V75.7123C302.616 74.6249 302.731 73.2656 301.772 72.7521C301.246 72.4701 300.577 72.5179 300.043 72.8337C299.881 72.9293 299.749 73.0666 299.617 73.2C297.995 74.8387 296.532 74.5053 296.396 74.4707C296.396 74.4706 296.396 74.4707 296.396 74.4709V74.4709ZM242.553 64.0067C242.553 64.0067 242.553 64.0068 242.553 64.0068L244.116 67.5973C244.772 69.1018 244.059 70.8507 242.539 71.4692L238.518 73.1053C238.518 73.1055 238.518 73.1052 238.518 73.1048V73.1048C238.518 73.1046 238.518 73.1045 238.517 73.1044C237.069 71.4365 235.887 69.5573 235.012 67.5336C234.76 66.9513 235.031 66.2817 235.613 66.0295C237.831 65.0683 240.163 64.3885 242.553 64.0067C242.553 64.0067 242.553 64.0067 242.553 64.0067V64.0067Z" fill="white"/>
<path d="M303.821 116.667C303.821 116.667 303.821 116.667 303.821 116.667C303.254 115.981 302.239 115.883 301.552 116.449C300.866 117.016 300.768 118.031 301.334 118.719C301.551 118.981 301.771 119.237 301.998 119.489C301.998 119.489 301.998 119.489 301.998 119.489V119.489C301.998 119.489 301.998 119.489 301.999 119.489C302.597 120.144 303.61 120.194 304.27 119.601C304.929 119.006 304.984 117.991 304.392 117.33C304.197 117.113 304.007 116.892 303.821 116.667C303.821 116.667 303.821 116.667 303.821 116.667V116.667Z" fill="white"/>
<path d="M313.481 70.0354C313.481 70.0354 313.48 70.0354 313.48 70.0355C313.511 70.0424 314.865 70.3263 316.008 70.6356C316.862 70.8531 317.734 70.3455 317.963 69.4943C318.193 68.6431 317.697 67.7651 316.849 67.5231C315.607 67.1873 314.199 66.8916 314.14 66.8794C313.278 66.7187 312.445 67.2765 312.266 68.1344C312.087 68.993 312.627 69.8371 313.481 70.0351C313.481 70.0351 313.481 70.0354 313.481 70.0354V70.0354Z" fill="white"/>
<path d="M401.503 106.371C401.503 106.37 401.503 106.37 401.504 106.37C401.676 106.41 401.85 106.44 402.025 106.462C402.605 106.535 403.117 106.941 403.255 107.509C403.575 108.823 404.188 110.24 405.247 111.443C406.471 112.834 407.72 114.323 408.05 116.147C409.043 121.628 411.143 131.924 414.072 139.36C414.072 139.36 414.072 139.36 414.072 139.36V139.36C414.071 139.36 414.071 139.36 414.071 139.361C414.224 139.748 414.516 140.061 414.887 140.242C414.937 140.266 414.989 140.283 415.044 140.293C415.221 140.325 415.401 140.342 415.581 140.344C416.022 140.348 416.445 140.195 416.85 140.019C423.271 137.227 429.466 133.942 435.38 130.192L435.387 130.189C436.766 129.304 438.088 128.408 439.336 127.518L439.384 127.482C439.582 127.34 439.783 127.198 439.978 127.057C439.978 127.057 439.978 127.057 439.978 127.057V127.057C439.978 127.057 439.977 127.057 439.978 127.057C440.063 126.995 440.141 126.925 440.212 126.847C440.217 126.843 440.221 126.839 440.226 126.835L443.048 124.668C443.049 124.667 443.049 124.666 443.049 124.666V124.666C443.355 127.526 444.537 130.221 446.435 132.382V132.382C449.968 136.405 454.993 139.704 455.879 144.984C456.079 146.175 456.23 147.374 456.331 148.58C456.435 149.867 456.117 151.154 455.425 152.246C454.377 153.915 452.607 157.307 451.242 161.292C449.928 165.126 447.418 168.519 445.123 171.86C445.063 171.948 445.004 172.036 444.946 172.124C444.578 172.683 444.101 173.226 444.029 173.89V173.89C443.952 174.682 444.447 175.416 445.209 175.642C453.514 177.89 462.012 179.348 470.593 179.993C473.487 180.218 476.645 180.366 479.969 180.366C491.837 180.366 505.792 178.491 517.109 171.634C517.109 171.634 517.11 171.634 517.11 171.634V171.634C517.11 171.635 517.11 171.635 517.11 171.635C517.663 171.291 518.262 171.03 518.889 170.86C518.975 170.837 519.063 170.827 519.151 170.825C520.554 170.798 521.917 170.342 523.055 169.52C525.137 167.979 527.036 166.206 528.716 164.233V164.233C531.511 161.028 531.905 156.013 534.221 152.446C541.393 141.399 549.001 121.877 544.797 91.3828C544.797 91.3825 544.797 91.3822 544.797 91.3822V91.3822C544.798 91.3822 544.798 91.3819 544.798 91.3816C544.68 90.5409 543.948 89.9257 543.1 89.9554V89.9554C536.702 90.1826 533.708 98.4222 528.759 102.484L516.192 112.797C515.467 113.369 515.327 114.413 515.874 115.157C516.148 115.504 516.552 115.728 516.994 115.776C517.434 115.824 517.877 115.691 518.219 115.41V115.41C525.098 109.766 535.057 114.777 533.346 123.509C531.464 133.116 528.058 143.398 521.906 149.971C521.906 149.971 521.906 149.971 521.906 149.971V149.971C521.906 149.972 521.905 149.972 521.905 149.972C521.486 149.861 521.058 149.789 520.626 149.757C520.342 149.736 520.072 149.618 519.885 149.402C515.967 144.887 509.607 136.834 505.765 128.194C505.759 128.183 505.752 128.173 505.747 128.162C505.64 127.924 505.536 127.685 505.435 127.446C501.354 117.851 503.089 107.972 504.113 103.907C504.113 103.907 504.113 103.907 504.113 103.907V103.907C504.112 103.907 504.112 103.907 504.113 103.907C505.392 103.306 506.407 102.257 506.965 100.959C507.524 99.6602 507.587 98.2014 507.141 96.8593C505.79 92.8137 503.405 89.191 500.223 86.349C498.939 85.183 497.279 84.5183 495.544 84.4771C493.811 84.4359 492.12 85.0206 490.781 86.1236C490.274 86.5386 489.772 86.9742 489.276 87.4278C488.839 87.8282 488.162 87.824 487.743 87.4049L485.888 85.5507C485.888 85.5506 485.888 85.5503 485.888 85.5503V85.5503C485.888 85.5503 485.888 85.5501 485.888 85.5499C484.793 84.4563 483.318 83.8272 481.773 83.7952C480.226 83.7631 478.726 84.3295 477.587 85.3764V85.3764C477.478 85.4773 477.3 85.4101 477.284 85.2618L476.058 73.7814V73.7826C475.995 73.2208 476.26 72.6739 476.739 72.3752C478.081 71.5081 479.345 70.5298 480.516 69.4522C482.113 67.983 485.105 68.5655 486.156 70.4643V70.4643C487.939 73.3613 490.473 75.7217 493.489 77.2949C495.286 78.2263 497.279 78.7171 499.303 78.7251C500.813 78.7285 502.31 78.4379 503.71 77.8704C507.435 76.3494 508.573 73.6419 508.69 73.3366C508.69 73.3363 508.69 73.336 508.69 73.3356V73.3356C508.69 73.3353 508.691 73.3349 508.691 73.3345C509.008 72.5097 508.622 71.5798 507.811 71.2252C504.047 69.5788 504.136 64.3226 504.137 64.2778V64.2252V46.6851C504.137 40.2652 502.431 35.4574 499.066 32.3945C496.437 30.0696 493.005 28.8568 489.498 29.0135C484.765 29.0342 482.057 31.2947 480.59 33.2788C480.044 34.0176 479.269 34.5657 478.385 34.8145V34.8145C477.387 35.095 476.305 34.9958 475.417 34.4612C474.559 33.9439 473.668 33.4809 472.75 33.0752C471.867 32.6851 470.937 32.3293 469.989 32.0136C469.988 32.0135 469.988 32.0137 469.988 32.014V32.014C469.988 32.0143 469.988 32.0145 469.988 32.0144C465.927 30.6232 461.536 30.5215 457.416 31.7251V31.7251C452.174 33.4718 447.125 37.0809 443.745 41.4522C441.849 43.9045 440.382 47.5339 440.503 52.8773C440.604 57.3553 442.158 61.0851 445.119 63.9842C445.331 64.1922 445.458 64.5112 445.467 64.8084V64.8084C445.495 65.8117 444.269 66.3742 443.533 65.6919L443.11 65.3007C441.615 63.9163 439.303 63.9289 437.823 65.3293V65.3293C437.445 65.6881 436.852 65.6869 436.476 65.3267L434.046 63.0017C433.381 62.3659 433.024 61.4735 433.067 60.5548L433.221 57.2256C433.221 57.2253 433.221 57.2251 433.221 57.2251V57.2251C433.221 57.2251 433.22 57.2248 433.22 57.2245C433.296 55.6057 432.764 54.0156 431.728 52.7673L426.874 46.9242C426.588 46.5672 426.171 46.3383 425.716 46.2926C424.87 46.2205 424.107 46.7972 423.946 47.6301L423.111 51.9774C422.874 53.2103 421.898 54.1678 420.661 54.3821V54.3821C419.596 54.5667 418.513 54.1673 417.823 53.335L416.534 51.7812C416.249 51.423 415.832 51.1954 415.376 51.1496C414.532 51.0764 413.769 51.6542 413.607 52.486V52.486C412.748 56.9666 409.145 60.4569 404.65 61.2343V61.2343C404.194 61.3041 403.787 61.5558 403.52 61.9322C403.039 62.6348 403.168 63.589 403.82 64.1382L410.424 69.6852C411.718 70.771 413.353 71.366 415.042 71.366H415.176L417.251 71.3274C419.693 71.282 422.045 72.2519 423.745 74.0058L426.229 76.5693C426.23 76.5696 426.23 76.57 426.23 76.5705V76.5705C426.23 76.5708 426.23 76.5711 426.229 76.5713C425.842 77.2909 425.692 78.1145 425.802 78.9245C425.933 79.8158 426.361 80.635 427.016 81.2528L438.862 92.7919L441.891 95.7411C441.891 95.7413 441.891 95.7416 441.891 95.7419V95.7419C441.891 95.7423 441.891 95.7427 441.89 95.7428C440.98 96.0941 440.114 96.5516 439.311 97.1076C438.043 97.9954 437.21 99.3776 437.017 100.913C436.819 102.473 437.29 104.044 438.313 105.237V105.237C438.687 105.673 438.636 106.333 438.188 106.692C435.028 109.221 430.612 112.721 427.072 115.399C427.071 115.4 427.07 115.4 427.069 115.4V115.4C427.068 115.4 427.067 115.401 427.066 115.401C426.893 115.532 426.724 115.66 426.558 115.784C425.62 116.489 424.278 116.164 423.776 115.103C422.712 112.859 421.725 110.579 420.819 108.266C420.459 107.347 420.284 106.368 420.284 105.381V96.8639V96.8639C420.276 94.1133 419.016 91.3167 419.069 88.5666C419.112 86.3597 418.924 84.1504 418.507 81.9737C418.267 80.5367 417.396 79.2815 416.134 78.5526C415.24 78.0549 414.2 77.8867 413.194 78.0789C412.188 78.27 411.282 78.8089 410.634 79.6018C409.866 80.5446 409.518 81.7608 409.673 82.9679C409.791 83.8798 409.859 84.8306 409.891 85.7756V85.7756C409.891 85.7749 409.89 85.7742 409.89 85.7737C408.569 84.6357 407.047 83.7526 405.405 83.1692C404.511 82.8546 403.538 82.8386 402.635 83.1223C401.731 83.4061 400.944 83.9759 400.391 84.7459C399.81 85.564 399.536 86.5605 399.617 87.5606C399.7 88.5606 400.132 89.4999 400.838 90.2127C401.117 90.4873 401.436 90.7173 401.783 90.8958V90.8958C403.112 91.6285 402.527 93.4703 401.186 94.1806C401.127 94.212 401.068 94.2441 401.009 94.2768C399.201 95.3214 398.065 97.2299 398.01 99.3168C397.969 100.494 398.054 101.673 398.262 102.833C398.409 103.669 398.793 104.447 399.367 105.074C399.94 105.701 400.682 106.151 401.503 106.371C401.503 106.371 401.503 106.371 401.503 106.371V106.371ZM420.407 63.2141C420.284 65.886 418.107 68.0031 415.433 68.0526L415.113 68.0585C414.177 68.0756 413.267 67.7541 412.549 67.1523V67.1523C411.015 65.8647 411.687 63.3715 413.661 63.0293L413.868 62.9933C414.546 62.8766 415.079 62.3525 415.208 61.6763V61.6763C415.489 60.2066 417.247 59.5812 418.393 60.5433L419.578 61.5382C420.053 61.9368 420.421 62.4798 420.411 63.0998C420.41 63.1379 420.409 63.176 420.407 63.2141V63.2141ZM491.638 150.869C491.637 150.869 491.636 150.868 491.635 150.867C488.891 147.094 489.522 140.565 490.488 136.228C490.951 134.15 492.94 134.079 493.666 136.08V136.08L493.669 136.093C494.367 137.994 494.951 139.933 495.42 141.902C495.433 141.959 495.449 142.015 495.468 142.07C498.38 150.733 504.831 157.296 508.79 160.698C508.79 160.698 508.791 160.699 508.791 160.7V160.7V160.7C508.752 161.92 508.278 163.168 507.155 163.647C506.43 163.957 505.63 164.271 504.824 164.572C501.663 165.754 498.216 163.824 496.954 160.694C495.774 157.766 494.033 154.158 491.641 150.87C491.64 150.869 491.639 150.869 491.638 150.869V150.869ZM494.928 123.599C494.926 123.599 494.925 123.598 494.925 123.596C494.926 123.566 494.929 123.537 494.93 123.507C495.003 121.254 494.851 118.999 494.476 116.779C494.297 115.715 495.215 114.343 496.142 113.792V113.792C497.844 112.779 499.487 114.375 499.597 116.352C499.785 119.728 500.416 123.068 501.478 126.286C501.825 127.337 501.401 128.498 500.461 129.083V129.083C499.238 129.843 497.585 129.382 497.005 128.064C496.186 126.204 495.44 124.639 494.93 123.6C494.929 123.599 494.928 123.599 494.928 123.599V123.599ZM446.273 123.423C446.272 123.422 446.271 123.421 446.271 123.42C446.234 122.409 446.249 121.398 446.316 120.391C446.482 117.867 449.478 116.96 451.446 118.551C455.587 121.899 460.09 124.782 464.875 127.143C468.011 128.677 471.695 128.601 474.765 126.94C477.546 125.438 481.526 123.125 486.726 119.72V119.72C488.825 118.347 491.609 119.589 491.637 122.096C491.642 122.538 491.637 122.98 491.623 123.423C491.488 128.678 487.544 133.096 482.487 133.698C482.224 133.72 480.936 133.783 480.468 133.746C477.995 133.573 475.547 133.157 473.155 132.506C470.405 131.719 467.489 131.719 464.739 132.506C462.348 133.157 459.898 133.573 457.426 133.746C456.959 133.781 455.669 133.718 455.447 133.698C452.944 133.362 450.643 132.141 448.961 130.257C447.278 128.373 446.326 125.95 446.276 123.425C446.276 123.424 446.274 123.423 446.273 123.423V123.423ZM458.221 154.005C458.22 154.005 458.22 154.004 458.22 154.003C459.294 152.3 459.785 150.294 459.619 148.286V148.286C459.327 144.984 462.053 141.989 465.339 142.429L476.615 143.94C477.461 144.053 478.225 144.502 478.737 145.183C479.249 145.867 479.465 146.726 479.337 147.569L478.965 150.02C478.965 150.021 478.966 150.021 478.966 150.021V150.021C478.966 150.021 478.966 150.021 478.966 150.022C478.6 152.571 479.182 155.166 480.599 157.316C480.79 157.6 480.974 157.887 481.152 158.178C483.784 162.484 476.11 167.589 471.068 167.392V167.392C463.594 167.1 465.3 158.824 471.083 154.081V154.081C471.789 153.502 471.892 152.46 471.313 151.754C470.734 151.048 469.692 150.945 468.986 151.524L453.871 163.928C453.871 163.928 453.87 163.928 453.87 163.927V163.927C453.87 163.927 453.87 163.927 453.87 163.927C454.909 160.455 456.371 157.124 458.222 154.006C458.222 154.006 458.222 154.005 458.221 154.005V154.005ZM448.824 173.169C448.824 173.168 448.824 173.168 448.824 173.168C451.189 171.275 454.285 170.559 457.241 171.222C478.382 175.896 494.161 172.513 503.655 168.87C504.729 168.458 505.946 168.881 506.569 169.848V169.848C507.385 171.115 506.918 172.863 505.49 173.345C483.875 180.632 457.251 175.221 448.824 173.169V173.169ZM538.965 100.124C538.961 99.3226 539.077 98.5251 539.311 97.7597V97.7597C539.948 95.7608 542.096 96.4514 542.274 98.5418C544.226 121.489 539.093 137.258 533.469 147.294C532.865 148.373 531.497 148.724 530.42 148.115V148.115C529.284 147.473 528.916 146.017 529.545 144.873C538.301 128.95 538.938 105.41 538.965 100.122L538.965 100.124ZM522.48 153.892C522.48 153.892 522.48 153.892 522.48 153.892C523.78 154.951 524.964 155.988 526.002 156.98C527.423 158.342 527.52 160.582 526.223 162.063C524.71 163.843 523 165.446 521.123 166.839C519.807 167.757 518.049 167.723 516.77 166.755C515.453 165.754 514.219 164.646 513.083 163.444C511.897 162.172 511.754 160.246 512.739 158.812C513.897 157.121 515.827 154.818 518.44 153.45C518.44 153.45 518.44 153.45 518.44 153.45V153.45C518.44 153.45 518.44 153.449 518.44 153.449C519.754 152.776 521.343 152.95 522.48 153.892C522.48 153.892 522.48 153.892 522.48 153.892V153.892ZM514.595 148.34V148.34C514.661 148.357 514.724 148.386 514.767 148.44C514.891 148.593 515.015 148.745 515.137 148.894C515.899 149.827 515.643 151.226 514.679 151.948C514.38 152.172 514.089 152.404 513.804 152.646C512.62 153.653 510.852 153.824 509.723 152.755C509.592 152.631 509.461 152.506 509.331 152.38C507.757 150.855 508.302 148.26 510.482 148.032C511.849 147.89 513.242 147.99 514.595 148.34L514.595 148.34ZM507.235 137.918C507.235 137.919 507.235 137.919 507.236 137.919C507.728 138.713 508.229 139.492 508.735 140.253C509.966 142.108 508.652 144.826 506.559 145.586V145.586C505.256 146.059 503.718 145.744 503.051 144.529C502.953 144.35 502.857 144.17 502.764 143.989C502.256 143 502.35 141.799 503.082 140.963C504.222 139.661 505.638 138.619 507.234 137.917C507.234 137.917 507.235 137.917 507.235 137.918V137.918ZM503.484 131.138C503.484 131.138 503.484 131.139 503.484 131.139C504.123 132.467 504.816 133.772 505.539 135.052C505.54 135.052 505.54 135.053 505.54 135.053V135.053C505.54 135.053 505.539 135.054 505.539 135.054C504.818 135.386 504.128 135.776 503.474 136.219C502.232 137.062 500.327 136.614 499.836 135.195V135.195C499.565 134.415 499.802 133.532 500.472 133.05C501.437 132.355 502.442 131.717 503.482 131.137C503.483 131.137 503.484 131.137 503.484 131.138V131.138ZM474.75 69.7041C474.75 69.7043 474.75 69.7044 474.75 69.7044C474.208 69.8589 473.719 70.1586 473.335 70.5728C472.792 71.1529 472.492 71.9171 472.492 72.7112V74.0133C472.498 75.1368 472.064 76.2181 471.28 77.0235C468.554 79.8129 465.287 82.0178 461.679 83.5005C460.525 83.965 459.216 83.838 458.172 83.1595C453.779 80.3277 450.665 75.8908 449.5 70.7945V70.7945C447.759 63.6221 456.646 62.92 463.625 65.3201C465.265 65.8838 467.101 66.3178 469.157 66.5746C470.045 66.6799 470.858 66.0643 470.997 65.181C471.147 64.419 471.469 63.7027 471.938 63.0837C472.451 62.4293 473.254 62.0666 474.085 62.1158C474.827 62.1444 475.504 62.5414 475.892 63.1741C476.484 64.2965 476.758 65.5586 476.688 66.8252C476.696 67.0861 476.68 69.1592 474.75 69.7038C474.75 69.7039 474.75 69.704 474.75 69.7041V69.7041ZM474.203 87.5952C474.257 88.1043 474.067 88.609 473.69 88.9555L466.272 95.7744C465.906 96.1112 465.352 96.1412 464.952 95.8458V95.8458C464.717 95.6727 464.566 95.4088 464.535 95.1186L464.337 93.2521C464.152 91.5073 465.208 89.8928 466.788 89.1306C468.515 88.2978 469.932 87.3702 471.084 86.4553C472.197 85.5706 474.052 86.181 474.203 87.5952V87.5952ZM486.29 40.6919C486.289 40.6926 486.288 40.694 486.289 40.695C488.453 44.0283 488.469 46.7096 486.264 49.145V49.145C486.265 49.1443 486.265 49.1433 486.265 49.1423C485.601 46.4894 484.491 43.9825 482.994 41.7232C481.799 39.9199 482.848 37.4823 484.572 38.7886C485.174 39.2445 485.754 39.8644 486.29 40.6888C486.291 40.6898 486.291 40.6912 486.29 40.6919V40.6919ZM423.347 60.3867C423.211 60.2715 423.105 60.1255 423.029 59.9643C422.773 59.4212 422.449 58.9121 422.066 58.4496V58.4496C421.758 58.0789 421.966 57.5138 422.441 57.4315L424.407 57.0904C424.408 57.0903 424.408 57.0903 424.409 57.0903V57.0903C424.409 57.0903 424.409 57.0902 424.41 57.0902C425.087 56.9721 425.621 56.4482 425.75 55.7733V55.7733C426.062 54.1487 428.125 53.61 429.181 54.8832V54.8832C429.691 55.4965 429.953 56.2791 429.915 57.0754V57.0754C429.811 59.3145 427.986 61.0883 425.745 61.1298L425.465 61.135C424.692 61.1521 423.939 60.8867 423.347 60.3867V60.3867ZM424.303 69.8288C423.761 69.27 423.474 68.5121 423.511 67.7347L423.593 65.9564C423.635 65.0597 424.508 64.4416 425.406 64.4416V64.4416H425.527L429.068 64.3753C430.087 64.3562 431.072 64.7409 431.808 65.4455L433.695 67.2503C434.263 67.7939 434.26 68.7023 433.689 69.2427V69.2427C433.152 69.751 432.31 69.7437 431.782 69.2262L429.12 66.6179C428.468 65.9783 427.421 65.9886 426.783 66.6408C426.143 67.2918 426.152 68.3387 426.804 68.9783L429.405 71.5268C429.908 72.0195 429.901 72.8312 429.389 73.315V73.315C428.896 73.7821 428.118 73.7653 427.645 73.2772L424.303 69.8288ZM429.075 78.4004C429.075 78.4004 429.075 78.4004 429.075 78.4003C429.075 78.247 429.139 78.1018 429.25 77.9965L440.093 67.7346C440.309 67.5321 440.644 67.5298 440.861 67.7312L445.564 72.0876C446.317 72.7855 446.856 73.6798 447.22 74.6402V74.6402C448.498 78.0161 447.665 82.2042 444.468 83.88L442.722 84.7948C439.879 86.2848 436.401 85.7777 434.102 83.538L429.245 78.8065C429.135 78.7001 429.073 78.5537 429.075 78.4004C429.075 78.4004 429.075 78.4004 429.075 78.4004V78.4004ZM440.298 101.328C440.298 101.328 440.298 101.328 440.298 101.328C440.369 100.719 440.699 100.169 441.202 99.8191V99.8191C442.582 98.8695 444.368 99.478 445.484 100.727C448.427 104.019 451.758 106.948 455.406 109.448C456.158 109.946 457.171 109.748 457.681 109.004C458.192 108.26 458.011 107.244 457.275 106.722C454.916 105.099 452.698 103.287 450.641 101.307C447.801 98.572 447.246 94.0103 450.317 91.5375V91.5375C451.21 90.803 452.487 90.7675 453.419 91.4517L462.541 98.1765C462.864 98.4146 462.89 98.8882 462.594 99.1598V99.1598C461.782 99.9081 460.581 100.051 459.616 99.5122L458.426 98.8489C458.425 98.8487 458.425 98.8486 458.425 98.8486V98.8486C458.424 98.8486 458.424 98.8485 458.423 98.8484C457.626 98.4048 456.62 98.6909 456.176 99.4882C455.732 100.286 456.018 101.293 456.815 101.737L458.006 102.4C458.006 102.4 458.007 102.4 458.007 102.4V102.4C458.007 102.4 458.008 102.4 458.008 102.4C459.086 103.002 460.325 103.248 461.55 103.104C462.776 102.958 463.924 102.43 464.831 101.593L466.878 99.7125L479.822 87.812C480.884 86.8326 482.529 86.8669 483.549 87.8898V87.8898C485.062 89.4023 485.142 91.8295 483.731 93.438L470.091 108.99C470.091 108.99 470.091 108.99 470.09 108.99V108.99C470.09 108.99 470.09 108.991 470.089 108.991C469.506 109.68 469.582 110.709 470.26 111.304C470.94 111.899 471.971 111.839 472.576 111.17L489.716 91.6276C490.707 90.5807 491.762 89.5978 492.875 88.6813C494.382 87.4421 496.57 87.4982 498.013 88.8117C500.766 91.2671 502.83 94.3997 504.001 97.8985C504.4 99.1033 503.823 100.416 502.666 100.937C499.791 102.249 495.008 104.866 488.543 109.896C482.855 114.28 476.827 118.202 470.513 121.623C469.023 122.43 467.228 122.442 465.729 121.651C451.497 114.155 444.015 106.801 440.821 103.084C440.821 103.084 440.821 103.084 440.82 103.084V103.084C440.82 103.084 440.82 103.084 440.819 103.083C440.405 102.597 440.216 101.96 440.298 101.328C440.298 101.328 440.298 101.328 440.298 101.328V101.328ZM438.079 111.006C438.079 111.006 438.079 111.006 438.079 111.006C439.356 112.407 440.196 114.149 440.498 116.019C440.501 116.053 440.631 117.999 438.724 120.921C437.285 123.126 434.088 122.349 432.712 120.103C432.486 119.734 432.251 119.37 432.008 119.011C431.222 117.851 431.398 116.253 432.505 115.394C434.393 113.928 436.331 112.397 438.08 111.006C438.08 111.006 438.08 111.006 438.079 111.006V111.006ZM425.873 120.39C425.873 120.39 425.873 120.39 425.873 120.389C426.446 119.982 427.098 119.507 427.84 118.955C427.84 118.955 427.84 118.955 427.841 118.955V118.955C427.841 118.955 427.842 118.955 427.842 118.956C429.388 120.817 430.65 122.893 431.59 125.115C432.109 126.344 431.628 127.746 430.505 128.466V128.466C428.091 130.012 425.075 127.194 425.517 124.361C425.79 122.604 425.86 121.18 425.873 120.39C425.873 120.39 425.873 120.39 425.873 120.39V120.39ZM421.668 118.335C421.668 118.335 421.668 118.335 421.668 118.335C421.997 118.999 422.264 119.52 422.444 119.867C422.525 120.024 422.568 120.195 422.563 120.371C422.536 121.4 422.395 123.749 421.705 126.44C420.996 129.204 417.612 129.158 416.536 126.515C416.424 126.24 416.314 125.964 416.205 125.687C415.674 124.333 416.369 122.841 417.6 122.064C419.161 121.077 420.541 119.816 421.668 118.335C421.668 118.335 421.668 118.335 421.668 118.335V118.335ZM418.099 110.39C418.099 110.39 418.098 110.39 418.098 110.39C418.723 111.946 419.358 113.41 419.949 114.713C419.99 114.803 419.977 114.908 419.928 114.994V114.994C419.235 116.192 418.35 117.257 417.317 118.153C415.847 119.427 413.769 118.614 413.255 116.737V116.737C412.777 114.994 413.878 113.132 415.471 112.279C416.422 111.77 417.306 111.136 418.099 110.39C418.099 110.39 418.099 110.39 418.099 110.39V110.39ZM413.193 81.6978C413.193 81.6978 413.193 81.6978 413.193 81.6977C413.38 81.4678 413.654 81.3259 413.95 81.3076C414.55 81.2665 415.086 81.6783 415.201 82.2676C415.782 85.1829 415.918 88.1682 415.606 91.1237C415.598 91.1916 415.536 91.2356 415.468 91.2244C415.465 91.2239 415.463 91.2234 415.46 91.223C415.459 91.223 415.459 91.2229 415.459 91.2229V91.2229C415.458 91.2229 415.458 91.2229 415.458 91.2228C415.411 91.216 415.363 91.2094 415.316 91.2031C414.137 91.0451 413.168 90.0568 413.203 88.8678C413.266 86.7572 413.183 84.6437 412.954 82.5423C412.912 82.2403 412.999 81.9336 413.193 81.698C413.193 81.6979 413.193 81.6979 413.193 81.6978V81.6978ZM414.969 94.4925C414.969 94.4927 414.97 94.4926 414.97 94.4923V94.4923C414.97 94.4921 414.97 94.492 414.97 94.492C416.131 94.6821 416.982 95.6877 416.98 96.8638V101.28C416.98 104.777 416.039 108.635 412.771 109.877V109.877C410.655 110.681 407.995 110.18 406.976 108.159C406.585 107.385 406.409 106.59 406.331 105.967V105.967C406.331 105.966 406.332 105.965 406.332 105.965C407.362 105.598 408.25 104.92 408.877 104.024C409.504 103.129 409.837 102.061 409.83 100.967V100.954V100.954C409.83 100.955 409.831 100.955 409.831 100.955C410.188 101.004 410.548 101.031 410.908 101.032C411.133 101.032 411.365 101.024 411.604 101.007C411.605 101.007 411.605 101.006 411.605 101.006V101.006C411.605 101.006 411.605 101.005 411.605 101.005C412.047 100.98 412.458 100.779 412.751 100.447C413.043 100.114 413.189 99.6794 413.157 99.2378C413.127 98.7961 412.919 98.3865 412.583 98.0993C412.247 97.8122 411.81 97.6703 411.369 97.7081C410.246 97.7893 409.449 97.5879 409 97.1108V97.1108C408.389 96.3671 409.001 95.3672 409.911 95.0551C411.69 94.445 413.385 94.2546 414.968 94.4918C414.968 94.4918 414.969 94.4919 414.969 94.492L414.969 94.4925ZM403.368 87.9941C403.368 87.9941 403.368 87.994 403.368 87.994C403.147 87.8727 402.988 87.6611 402.933 87.4151C402.872 87.1566 402.927 86.8842 403.083 86.6691C403.355 86.2847 403.85 86.1279 404.295 86.2836C406.529 87.0599 408.431 88.5737 409.688 90.5735C409.758 90.6856 409.79 90.8177 409.781 90.9499C409.763 91.1951 409.746 91.4297 409.727 91.6517C409.727 91.6518 409.727 91.6519 409.727 91.6519V91.6519C409.727 91.6519 409.727 91.6521 409.727 91.6521C409.215 91.7983 408.71 91.9685 408.213 92.1603C408.116 92.1978 408.006 92.1644 407.945 92.0797C406.745 90.3932 405.181 88.9962 403.368 87.9941C403.368 87.9941 403.368 87.9941 403.368 87.9941V87.9941ZM401.314 99.406C401.314 99.406 401.314 99.4057 401.314 99.4054C401.335 98.4743 401.838 97.6198 402.644 97.1497C402.729 97.1033 402.814 97.0587 402.901 97.0159C404.09 96.428 405.286 97.4433 405.986 98.5697C406.129 98.7996 406.289 99.0197 406.465 99.2281C406.502 99.2723 406.513 99.3276 406.516 99.3854V99.3854L406.525 100.982C406.525 100.982 406.524 100.983 406.524 100.983V100.983C406.524 100.984 406.524 100.984 406.524 100.985C406.531 101.949 405.839 102.778 404.889 102.944L404.343 103.04C403.822 103.133 403.295 103.183 402.765 103.192C402.155 103.214 401.62 102.787 401.506 102.186C401.346 101.269 401.281 100.338 401.313 99.4066C401.313 99.4063 401.313 99.406 401.314 99.406V99.406Z" fill="white"/>
<path d="M509.636 118.172C509.636 118.172 509.636 118.172 509.636 118.172L508.98 118.711C508.641 118.989 508.426 119.39 508.383 119.826C508.34 120.263 508.472 120.699 508.75 121.038C509.329 121.744 510.371 121.847 511.077 121.268L511.732 120.729C511.733 120.729 511.733 120.729 511.733 120.729V120.729C511.734 120.729 511.734 120.729 511.734 120.728C512.44 120.148 512.543 119.107 511.963 118.402C511.384 117.696 510.341 117.593 509.636 118.172C509.636 118.172 509.636 118.172 509.636 118.172V118.172Z" fill="white"/>
<path d="M453.406 65.8557C453.406 65.8557 453.406 65.8557 453.406 65.8557C453.094 65.818 452.787 65.7425 452.493 65.6315C451.648 65.3077 450.699 65.723 450.365 66.564C450.031 67.4061 450.435 68.3592 451.272 68.7036C451.868 68.9347 452.493 69.0846 453.131 69.1498C453.179 69.1532 453.224 69.1555 453.27 69.1555C454.158 69.1578 454.889 68.4587 454.926 67.5708C454.962 66.6841 454.291 65.9267 453.406 65.8557C453.406 65.8557 453.406 65.8557 453.406 65.8557V65.8557Z" fill="white"/>
<path d="M459.801 65.6361C459.801 65.6361 459.801 65.6361 459.8 65.6361C459.506 65.747 459.2 65.8226 458.887 65.8603C458.002 65.9313 457.331 66.6887 457.368 67.5754C457.405 68.4621 458.135 69.1624 459.022 69.1601C459.068 69.1601 459.115 69.1578 459.161 69.1544H459.162C459.798 69.0892 460.424 68.9393 461.021 68.7093C461.86 68.3661 462.267 67.4107 461.932 66.5686C461.598 65.7253 460.647 65.31 459.801 65.6361C459.801 65.6361 459.801 65.6361 459.801 65.6361V65.6361Z" fill="white"/>
<path d="M462.129 113.749C462.129 113.749 462.129 113.749 462.13 113.749L462.472 113.879C462.6 113.927 462.73 113.972 462.858 114.014C463.726 114.296 464.659 113.821 464.94 112.952C465.222 112.084 464.747 111.152 463.879 110.87C463.796 110.843 463.714 110.815 463.631 110.784L463.321 110.665C462.472 110.345 461.524 110.769 461.197 111.616C460.869 112.461 461.285 113.413 462.127 113.749C462.128 113.749 462.128 113.749 462.129 113.749V113.749Z" fill="white"/>
<path d="M66.6299 179.128C66.63 179.128 66.6301 179.128 66.6302 179.128C66.7047 179.128 66.7805 179.124 66.8539 179.115C67.7761 178.997 68.4244 178.188 68.3008 177.309C66.8059 166.606 67.3103 155.136 68.3804 145.497C68.4818 144.583 69.7799 144.262 70.4392 144.903V144.903V144.903C73.3122 147.686 74.8483 151.573 74.8103 155.572C74.6966 167.517 76.7931 177.361 76.8985 177.847C77.0594 178.592 77.7473 179.128 78.5459 179.128H86.8148C87.6099 179.128 88.2955 178.598 88.4611 177.856C89.6068 172.71 91.4754 167.954 93.4841 163.868C97.2074 156.295 106.914 155.32 114.664 158.66V158.66C116.025 159.254 117.528 159.489 119.016 159.339C120.505 159.189 121.922 158.66 123.123 157.807V157.807C129.567 153.264 138.617 151.834 143.212 158.241C150.133 167.888 152.45 177.716 152.484 177.862C152.484 177.862 152.484 177.862 152.484 177.862V177.862C152.483 177.862 152.483 177.862 152.483 177.862C152.652 178.599 153.337 179.126 154.128 179.127H169.581C170.446 179.126 171.169 178.5 171.254 177.679C172.008 170.421 171.579 163.108 169.996 156.001C169.253 152.667 171.669 149.316 175.084 149.316V149.316C177.391 149.316 179.414 150.894 179.869 153.155C182.683 167.117 181.521 177.199 181.505 177.333C181.505 177.333 181.505 177.333 181.505 177.333V177.333C181.505 177.333 181.506 177.333 181.506 177.333C181.398 178.214 182.058 179.011 182.98 179.115C183.046 179.122 183.112 179.126 183.179 179.126C184.032 179.125 184.751 178.516 184.851 177.707C184.921 177.136 186.354 164.901 182.245 148.343C181.672 146.036 183.376 143.74 185.753 143.74V143.74C187.186 143.74 188.423 144.664 189.38 145.731C189.478 145.84 189.579 145.946 189.684 146.05C190.883 147.232 191.976 148.677 191.976 150.36V177.432C191.957 178.308 192.655 179.05 193.571 179.127C194.033 179.152 194.484 178.992 194.82 178.689C195.155 178.385 195.346 177.964 195.346 177.522V157.267C195.346 155.81 196.91 154.887 198.185 155.592V155.592C198.795 155.929 199.173 156.571 199.173 157.267V177.432C199.155 178.308 199.851 179.05 200.767 179.127C201.229 179.152 201.681 178.992 202.016 178.689C202.352 178.385 202.542 177.964 202.542 177.522V151.287C202.542 148.888 204.126 146.812 205.404 144.781V144.781C206.094 143.684 206.459 142.429 206.46 141.15V132.428V132.429C206.459 131.15 206.094 129.895 205.404 128.799V128.799C204.125 126.769 202.542 124.693 202.542 122.294V91.1216C202.542 87.0777 204.903 83.3995 206.18 79.5625V79.5625C206.43 78.7734 206.534 77.9508 206.491 77.1312C206.468 76.7074 206.511 76.279 206.674 75.8869L211.173 65.0257C211.173 65.0256 211.173 65.0256 211.173 65.0257V65.0257C211.173 65.0259 211.173 65.0259 211.173 65.0258C211.721 63.7225 211.999 62.3302 211.988 60.927C211.976 59.875 211.94 57.1352 210.269 54.8573C210.003 54.4946 209.977 53.9955 210.252 53.6396L211.407 52.1456C211.407 52.1454 211.407 52.1451 211.407 52.1451V52.1451C211.407 52.1451 211.407 52.1448 211.407 52.1446C212.193 51.1259 212.198 49.7393 211.419 48.7151L198.274 31.4508C197.768 30.7857 196.955 30.3953 196.093 30.4042C195.23 30.4142 194.426 30.8213 193.936 31.4986L181.383 48.8441C180.705 49.7817 180.649 51.0073 181.239 51.9982L182.78 54.5838C182.78 54.5839 182.78 54.584 182.78 54.584V54.584C182.781 54.584 182.781 54.5844 182.78 54.5845C180.965 55.8023 179.64 57.575 179.023 59.6087C178.549 61.2346 178.551 62.9541 179.033 64.5789C179.514 66.2038 180.455 67.6707 181.752 68.8198V68.8198C185.1 71.863 185.924 76.7653 187.215 81.1017C187.97 83.6359 189.376 85.641 190.477 86.9215C191.449 88.0537 191.979 89.4717 191.977 90.9343V123.404C191.977 124.976 190.947 126.338 189.804 127.416V127.416C188.684 128.473 187.327 129.384 185.788 129.331L181.556 129.186C177.664 129.053 174.206 126.755 172.274 123.374C170.741 120.69 169.077 118.079 167.288 115.548C163.365 109.994 166.518 99.8296 167.176 93.0616V93.0616C167.181 93.0149 167.183 92.9626 167.183 92.9137C167.183 92.7135 167.145 87.9602 163.82 84.43C162.112 82.6149 161.282 80.1983 161.533 77.7702C161.891 73.9633 160.469 68.3047 151.668 62.9596C151.668 62.9594 151.668 62.9596 151.668 62.9598V62.9598C151.668 62.9601 151.667 62.9602 151.667 62.9601C148.458 61.0227 146.385 57.7653 146.064 54.1553C145.308 44.7608 141.271 29 122.723 29V29C113.31 29.1352 102.139 32.5031 94.2466 37.6358C93.4695 38.1412 92.6842 38.7193 91.8958 39.379C86.3202 44.0436 85.5403 52.8629 85.8668 59.4404C86.0755 62.8747 84.6367 66.2136 81.9573 68.5158C77.1676 72.4585 74.5651 78.2972 74.9104 84.3232C74.9598 86.0096 75.2508 87.6742 75.7694 89.2726C76.5633 91.7189 75.874 94.592 75.3139 97.1021V97.1021C75.2109 97.5682 75.1152 98.0356 75.0268 98.5042C74.6 100.766 72.3806 102.326 70.4157 103.524V103.524C68.9408 104.419 67.9462 105.879 67.6862 107.527C67.1056 111.156 66.912 114.832 67.1102 118.498V118.498C67.2823 121.533 68.3918 124.639 67.7855 127.618C65.7852 137.445 62.3063 158.731 64.9601 177.734C64.9602 177.734 64.9606 177.734 64.9608 177.734V177.734C64.9611 177.734 64.9615 177.734 64.9615 177.734C65.0726 178.532 65.7859 179.128 66.6297 179.128C66.6298 179.128 66.6299 179.128 66.6299 179.128V179.128ZM208.042 63.8468C208.042 63.8467 208.042 63.8468 208.042 63.8468L206.675 67.1456C206.038 68.683 204.014 69.026 202.906 67.7843L202.261 67.0611C201.311 65.9957 201.29 64.3933 202.212 63.3035L204.898 60.1289C206.274 58.5024 208.599 58.8326 208.621 60.9631V60.9631C208.626 61.9506 208.429 62.9304 208.042 63.8468C208.042 63.8468 208.042 63.8469 208.042 63.8468V63.8468ZM188.59 44.5474C190.809 41.4809 195.64 42.7646 196.045 46.5282L196.246 48.4008C196.333 49.2194 197.055 49.8422 197.917 49.8444C197.975 49.8444 198.033 49.8422 198.09 49.8366C199.016 49.7454 199.689 48.9569 199.594 48.0738V48.0738C199.261 44.9796 203.21 43.4071 205.095 45.8831L205.24 46.0729C206.553 47.797 205.766 50.3011 203.703 50.9644L199.736 52.2398C198.653 52.5881 197.494 52.6258 196.39 52.3484L190.93 50.9764C188.096 50.2642 186.876 46.915 188.59 44.5474V44.5474ZM194.015 55.0729C195.294 55.3943 196.123 56.6304 195.935 57.9355V57.9355C195.631 60.0416 193.048 60.8904 191.555 59.3747L186.441 54.1853C186.411 54.1549 186.385 54.121 186.363 54.0843V54.0843C186.121 53.6781 186.49 53.1817 186.949 53.297L194.015 55.0729ZM184.077 66.4922C183.235 65.7438 182.622 64.7906 182.301 63.7352C181.982 62.6797 181.969 61.562 182.263 60.4999V60.4999C182.976 58.142 186.008 58.4388 187.736 60.1936L201.913 74.5834C202.991 75.6578 203.39 77.1959 202.959 78.625V78.625C202.278 80.6702 199.683 80.6766 198.088 79.2267L184.077 66.4922ZM195.347 96.4781C195.347 94.8142 197.323 93.9429 198.552 95.0652V95.0652C198.948 95.4278 199.175 95.9406 199.175 96.4781V125.263C199.175 125.325 199.124 125.37 199.061 125.37V125.37V125.37C197.01 125.37 195.347 123.707 195.347 121.656L195.347 96.4781ZM190.967 132.43C190.967 132.43 190.968 132.43 190.968 132.43V132.43C190.968 132.43 190.969 132.429 190.969 132.429C190.97 130.306 192.774 128.586 194.999 128.584H199.063C201.287 128.586 203.091 130.306 203.093 132.43V141.153V141.151C203.091 143.275 201.287 144.995 199.063 144.997H194.998C192.772 144.995 190.969 143.275 190.966 141.151L190.967 132.43ZM88.9467 165.679C88.9466 165.679 88.9464 165.679 88.9463 165.679C88.304 165.194 87.8155 164.549 87.5346 163.816C87.2536 163.082 87.1918 162.288 87.355 161.523L88.4626 156.467C88.6084 155.8 88.2982 155.119 87.6884 154.765C82.6109 151.821 76.2067 145.911 72.8418 142.65C72.8416 142.65 72.8417 142.65 72.8419 142.65V142.65C72.8422 142.65 72.8423 142.65 72.8421 142.65C71.2637 141.122 70.4302 139.033 70.5433 136.891C70.6809 134.398 70.9036 132.089 71.1578 130.015V130.015C71.1578 130.015 71.1582 130.016 71.1588 130.016C72.9224 130.366 74.7062 130.602 76.4982 130.725C79.5028 130.931 81.8205 133.796 80.9646 136.683V136.683C80.8328 137.127 80.9063 137.602 81.1675 137.99C82.6998 140.264 85.3235 143.186 88.0599 146C92.3183 150.379 93.0604 157.082 90.3806 162.571C89.8798 163.596 89.4018 164.633 88.9468 165.679C88.9468 165.679 88.9468 165.679 88.9467 165.679V165.679ZM148.562 103.269C148.562 103.269 148.562 103.269 148.562 103.269C148.486 104.309 148.021 105.288 147.251 106.027C146.481 106.766 145.457 107.216 144.368 107.295L142.532 107.435C142.532 107.435 142.532 107.435 142.532 107.435V107.435C142.532 107.435 142.532 107.435 142.532 107.435C142.658 106.781 142.702 106.114 142.661 105.449C142.547 103.481 142.157 101.537 141.498 99.6689V99.6689C140.758 97.5991 140.789 94.8832 142.467 93.4639C143.383 92.6899 144.266 91.8812 145.115 91.0394C145.349 90.8036 145.696 90.7013 146.03 90.7702C146.352 90.8314 146.614 91.0494 146.72 91.3452C148.159 95.1632 148.785 99.217 148.562 103.269C148.562 103.269 148.562 103.269 148.562 103.269V103.269ZM119.195 85.7132C119.195 85.7131 119.196 85.7131 119.196 85.7132V85.7133C119.196 85.7134 119.196 85.7134 119.195 85.7134C118.259 86.2606 117.09 86.3017 116.114 85.8191C113.194 84.3388 110.639 82.2789 108.622 79.7788C106.78 77.5278 105.631 74.833 105.303 71.9947C105.216 71.263 105.147 70.4944 105.095 69.6917C104.984 67.9793 105.34 66.4491 106.281 65.0142V65.0142C109.143 60.6499 114.853 61.6588 118.998 64.8293C120.818 66.2213 122.84 67.3719 125.008 68.241C127.007 69.0425 128.484 70.9357 128.26 73.078V73.078C127.97 75.9998 126.785 78.7746 124.848 81.0558C123.247 82.8952 121.336 84.4688 119.195 85.7133C119.195 85.7134 119.195 85.7133 119.195 85.7132V85.7132ZM123.004 87.1214V90.5214C123.004 93.7883 120.188 96.365 116.971 95.7944C116.27 95.67 115.57 95.5355 114.873 95.391C113.588 95.1244 112.688 93.9773 112.688 92.6645V88.1083C112.688 87.9023 112.913 87.775 113.091 87.8787C113.582 88.1649 114.08 88.4356 114.587 88.6824C114.587 88.6825 114.587 88.6823 114.587 88.6822V88.6822C114.587 88.6821 114.587 88.682 114.587 88.682C116.611 89.6582 119.02 89.5702 120.958 88.447C121.56 88.099 122.259 87.6532 123.003 87.123C123.003 87.1227 123.004 87.1221 123.004 87.1214V87.1214ZM89.1679 90.6463C89.1679 90.6462 89.1677 90.6462 89.1677 90.6463V90.6463C89.1677 90.6465 89.1679 90.6465 89.1679 90.6464C89.3756 90.1262 89.8022 89.7127 90.3441 89.5071V89.5071C91.4135 89.1003 92.4739 89.9196 93.4339 90.5421C97.1469 92.9496 107.38 98.5705 123.659 99.903C124.37 99.9612 124.852 100.666 124.761 101.373V101.373V101.373C124.679 102.059 124.106 102.597 123.415 102.577C106.475 102.079 94.3487 96.41 89.7142 93.8593C88.939 93.4327 88.5328 92.5463 88.7935 91.7008C88.9032 91.345 89.0283 90.9935 89.1685 90.6474C89.1685 90.6472 89.1685 90.6471 89.1684 90.647L89.1679 90.6463ZM128.106 101.75C128.105 101.75 128.105 101.749 128.105 101.748C128.261 100.533 128.88 99.415 129.845 98.6057C130.81 97.7961 132.051 97.3534 133.336 97.3601H133.369C134.454 97.3601 135.512 97.6815 136.397 98.2799C137.281 98.8793 137.949 99.7257 138.305 100.703C138.866 102.298 139.2 103.958 139.297 105.637C139.372 106.778 139.037 107.91 138.346 108.844C137.655 109.78 136.65 110.46 135.497 110.776L135.074 110.893C135.074 110.893 135.073 110.893 135.073 110.893V110.893C135.073 110.892 135.073 110.892 135.073 110.892C133.729 111.266 132.284 111.112 131.059 110.467C129.833 109.822 128.927 108.739 128.541 107.454C128.001 105.6 127.854 103.662 128.108 101.752C128.108 101.751 128.107 101.75 128.106 101.75V101.75ZM183.705 132.477C185.875 132.551 187.595 134.332 187.595 136.502V136.502C187.595 138.727 185.792 140.53 183.567 140.53L160.918 140.531C158.641 140.528 156.414 139.892 154.51 138.698C150.917 136.427 147.447 133.985 144.113 131.382C142.373 130.023 142.383 127.139 143.236 125.103V125.103C144.655 121.72 149.597 120.373 152.125 123.03C154.34 125.359 156.396 127.438 157.958 128.993C159.691 130.726 162.068 131.741 164.577 131.822L183.705 132.477ZM171.439 128.841C171.438 128.841 171.438 128.841 171.438 128.841L164.696 128.611C164.696 128.611 164.696 128.611 164.696 128.612V128.612C164.696 128.612 164.695 128.612 164.695 128.612C163.062 128.559 161.516 127.898 160.389 126.77C158.573 124.964 156.082 122.438 153.459 119.647C152.863 119.013 152.302 118.335 151.981 117.526C151.408 116.082 150.875 113.506 152.798 111.003C154.659 108.581 158.299 109.426 160.242 111.783C164.599 117.067 168.354 122.785 171.44 128.84C171.44 128.841 171.439 128.842 171.439 128.841V128.841ZM84.1953 70.9214C84.1953 70.9214 84.1953 70.9213 84.1953 70.9213C87.6371 67.9751 89.4898 63.6966 89.2322 59.2913C88.9407 53.4201 89.5516 45.6183 94.1162 41.8C101.679 35.4696 108.652 38.1087 108.936 38.2211C109.692 38.5281 110.57 38.2701 111.014 37.6105C114.503 32.4355 122.699 32.2177 122.75 32.2177C137.764 32.2177 141.888 44.2837 142.704 54.4057C143.108 59.0235 145.756 63.194 149.858 65.6753C155.693 69.2186 158.57 73.3037 158.177 77.4876V77.4887C157.858 80.8031 158.994 84.095 161.314 86.582V86.582C162.678 88.061 162.655 90.4532 160.8 91.2302C159.742 91.6729 158.659 91.8342 158.43 91.8647C158.4 91.8687 158.369 91.8714 158.339 91.8731C151.288 92.2748 149.562 86.787 149.536 86.7032C149.536 86.7025 149.536 86.7056 149.536 86.7063V86.7063C149.536 86.707 149.535 86.7072 149.535 86.7065C147.051 79.4472 142.009 71.4269 131.719 67.2491C115.107 60.5049 116.421 51.621 116.479 51.2697C116.479 51.2696 116.479 51.2699 116.479 51.27V51.27C116.479 51.27 116.479 51.27 116.479 51.27C116.602 50.6128 116.288 49.9525 115.689 49.6089C115.089 49.2652 114.33 49.3108 113.78 49.7223C108.682 53.4429 104.516 58.1975 101.58 63.6427C101.579 63.6434 101.578 63.6432 101.578 63.6423V63.6423C101.578 63.6414 101.577 63.6412 101.577 63.6419L101.541 63.7134C101.498 63.7946 101.456 63.8746 101.414 63.9547C100.208 66.2091 92.3744 79.7863 78.6431 79.8399C78.6431 79.8399 78.643 79.8399 78.643 79.84V79.84C78.643 79.8401 78.6432 79.8402 78.6433 79.84C79.4409 76.3749 81.3879 73.2479 84.1953 70.9215C84.1954 70.9214 84.1954 70.9214 84.1953 70.9214V70.9214ZM71.0176 108.009C71.0171 108.009 71.0168 108.008 71.0169 108.008C71.129 107.277 71.5708 106.629 72.227 106.238C72.8939 105.832 73.7112 105.721 74.4703 105.933V105.933C75.0631 106.1 75.6382 106.316 76.2014 106.565C79.9469 108.221 93.7763 113.804 109.866 113.804C110.318 113.812 110.753 113.646 111.076 113.344C111.398 113.041 111.579 112.629 111.579 112.198C111.579 111.767 111.398 111.354 111.076 111.051C110.753 110.75 110.318 110.583 109.866 110.591C99.2248 110.591 89.439 107.953 83.3074 105.839C79.9228 104.673 77.8412 101.272 78.6083 97.7757V97.7757C79.0175 95.974 80.8131 94.7785 82.7264 95.0331V95.0331C84.8999 95.3261 86.9642 96.1103 88.9002 97.1408C94.5186 100.131 107.177 105.613 124.765 105.826C124.766 105.826 124.766 105.825 124.766 105.825V105.825C124.878 106.674 125.056 107.515 125.301 108.339C125.818 110.057 126.906 111.57 128.402 112.648C129.897 113.725 131.72 114.309 133.594 114.313C134.412 114.313 135.226 114.203 136.012 113.985V113.985C136.205 113.931 136.405 114.055 136.442 114.252C137.788 121.39 135.154 126.133 133.368 128.402C133.367 128.403 133.367 128.403 133.367 128.403V128.403C133.367 128.404 133.367 128.404 133.367 128.404C132.029 130.136 131.311 132.233 131.32 134.385V134.385C131.32 141.426 129.341 148.598 123.92 153.09C123.017 153.839 122.081 154.553 121.115 155.232C120.4 155.74 119.553 156.056 118.666 156.145C117.777 156.235 116.881 156.096 116.069 155.742C114.931 155.253 113.811 154.729 112.712 154.169C106.168 150.834 102.987 143.594 102.987 136.249V136.249V136.249C103.009 133.152 104.574 128.766 107.5 127.749C115.271 125.05 121.657 120.379 124.255 118.31C125.102 117.635 126.296 117.052 126.37 115.97C126.39 115.673 126.324 115.367 126.161 115.087C125.709 114.312 124.683 114.031 123.871 114.463C112.953 120.251 95.5476 126.394 74.6213 122.793C73.6011 122.619 72.6637 122.15 71.9338 121.45C71.9 121.412 71.8627 121.377 71.8254 121.343C71.0174 120.52 70.5393 119.451 70.4752 118.325C70.2899 114.878 70.4717 111.422 71.0184 108.01C71.0185 108.009 71.0182 108.009 71.0176 108.009V108.009Z" fill="white"/>
<path d="M113.674 69.0877C113.674 69.088 113.673 69.0882 113.673 69.0881C112.844 68.8902 112 68.7546 111.148 68.6823C110.229 68.6178 109.427 69.2707 109.348 70.147C109.269 71.0223 109.941 71.7964 110.859 71.8843C111.533 71.941 112.201 72.0489 112.858 72.2057C112.992 72.2379 113.129 72.2535 113.267 72.2524C114.118 72.2524 114.835 71.6474 114.939 70.841C115.042 70.036 114.499 69.2832 113.674 69.0873C113.674 69.0872 113.674 69.0874 113.674 69.0877V69.0877Z" fill="white"/>
<path d="M124.768 70.1446C124.731 69.7197 124.517 69.326 124.175 69.0524C123.833 68.7777 123.39 68.6443 122.945 68.6821C122.093 68.7544 121.248 68.8901 120.419 69.088C119.594 69.2838 119.05 70.0367 119.154 70.8431C119.258 71.6483 119.975 72.2544 120.826 72.2544C120.965 72.2544 121.102 72.2388 121.235 72.2077C121.892 72.0498 122.56 71.9419 123.234 71.8852C123.679 71.8485 124.092 71.6449 124.379 71.3179C124.667 70.9921 124.807 70.5695 124.768 70.1446V70.1446Z" fill="white"/>
</svg>
