<svg width="267" height="322" viewBox="0 0 267 322" fill="none" xmlns="http://www.w3.org/2000/svg">
<path d="M127.554 88.4219C126.037 88.4219 124.668 87.5083 124.086 86.1033C123.504 84.7006 123.826 83.0857 124.899 82.0123C125.973 80.9388 127.588 80.6168 128.993 81.1989C130.395 81.7785 131.309 83.1478 131.309 84.6673C131.309 85.6644 130.913 86.6186 130.209 87.3223C129.505 88.026 128.551 88.422 127.554 88.422L127.554 88.4219Z" fill="#98724F"/>
<path d="M112.19 88.4219C110.67 88.4219 109.301 87.5083 108.722 86.1033C108.139 84.7006 108.462 83.0857 109.535 82.0123C110.608 80.9388 112.223 80.6168 113.626 81.1989C115.029 81.7785 115.945 83.1478 115.945 84.6673C115.945 85.6644 115.549 86.6186 114.845 87.3223C114.141 88.026 113.185 88.422 112.19 88.422L112.19 88.4219Z" fill="#98724F"/>
<path d="M147.902 175.656C147.899 174.137 148.815 172.767 150.218 172.185C151.621 171.603 153.236 171.925 154.311 172.999C155.385 174.072 155.705 175.687 155.125 177.09C154.543 178.495 153.174 179.408 151.656 179.408C149.584 179.408 147.902 177.729 147.902 175.656Z" fill="#98724F"/>
<path d="M148.867 185.25C150.386 185.25 151.756 186.166 152.335 187.568C152.917 188.971 152.595 190.586 151.522 191.659C150.448 192.735 148.833 193.055 147.431 192.475C146.026 191.893 145.112 190.524 145.112 189.004C145.112 188.01 145.508 187.056 146.212 186.349C146.916 185.646 147.872 185.25 148.867 185.25L148.867 185.25Z" fill="#98724F"/>
<path d="M265.822 116.806C265.319 125.589 263.182 133.804 259.799 139.94L259.797 139.938C258.012 143.26 255.343 146.02 252.082 147.914C248.824 149.811 245.102 150.765 241.333 150.672C241.512 160.297 241.913 175.773 242.774 189.535V189.538C245.868 190.707 248.551 192.76 250.486 195.442C252.421 198.125 253.523 201.319 253.654 204.623C254.074 214.699 254.036 229.174 251.531 241.323C253.437 243.749 254.46 246.752 254.427 249.836C254.396 252.921 253.313 255.903 251.357 258.288L239.89 272.174L247.381 279.478H247.383C247.867 279.933 248.216 280.513 248.387 281.155C248.776 282.686 248.077 284.287 246.689 285.043L214.533 302.492H214.536C212.453 303.609 210.967 305.579 210.469 307.888C209.393 313.002 205.953 322 195.073 322H100.022C93.8081 322 88.7511 316.349 88.7511 309.403V304.045C88.7321 300.97 89.7721 297.981 91.6971 295.584C90.2134 294.441 88.8918 293.103 87.7636 291.61C86.0723 289.286 85.0585 286.541 84.8271 283.676C84.5981 280.814 85.1634 277.942 86.4611 275.377L87.8852 272.531C89.1519 270.003 89.8126 267.214 89.8126 264.385V232.585C86.0174 230.152 78.0975 223.561 76.1586 210.004V210.002C75.7054 206.648 75.672 203.248 76.0584 199.885C77.2822 188.151 81.6905 160.874 96.8713 142.327L62.6927 137.459L54.6538 178.769L69.7893 185.677C71.6189 186.529 72.5207 188.616 71.8837 190.531C70.8675 193.167 67.8118 192.349 67.3585 192.142L49.3297 183.914L49.3273 183.912C47.877 183.251 47.0707 181.681 47.3761 180.119L48.273 175.508L1.67831 147.591V147.589C0.242258 146.735 -0.370794 144.969 0.227968 143.409C11.8594 113.518 30.8329 87.6283 38.8864 77.3776L31.5822 72.0939V72.0915C30.8093 71.5333 30.3036 70.6817 30.1843 69.7347C30.0626 68.79 30.3394 67.8383 30.9453 67.1036C41.2644 54.6251 54.1031 47.3191 63.0604 43.3876C67.9386 41.2526 73.1267 39.9215 78.4297 39.4469C77.3658 35.6564 76.8077 31.742 76.7694 27.8063C76.7504 26.8092 77.1654 25.8502 77.9073 25.1823C78.6468 24.5143 79.6415 24.1995 80.6338 24.3211L85.2878 24.8912V24.8889C82.399 17.6323 82.4372 9.536 85.3951 2.30627C85.7076 1.46422 86.3207 0.770073 87.1198 0.357382C88.6274 -0.386902 90.4522 0.0615928 91.4446 1.42129C91.5114 1.51432 98.3769 10.7389 113.415 14.5794C118.403 15.7936 123.562 16.1227 128.662 15.5502C137.059 14.6581 145.546 15.3356 153.693 17.554C173.73 23.2623 186.55 42.6702 183.515 62.7008C182.246 71.1525 178.21 78.941 172.039 84.8516C172.237 88.0505 171.877 91.2612 170.973 94.3359C168.79 103.272 162.065 106.173 156.806 106.64V122.348C160.589 128.645 173.122 128.552 177.981 128.264C177.712 116.63 179.661 105.054 183.721 94.1476C182.776 94.2478 181.836 94.3479 180.872 94.4481V94.4505C180.753 94.4624 180.631 94.4696 180.512 94.4696C178.623 94.4672 177.089 92.9453 177.07 91.0561C177.111 89.2312 178.52 87.7284 180.343 87.5757C182.573 87.342 184.744 87.1034 186.874 86.8625L186.872 86.8649C188.773 83.1269 192.346 80.5267 196.485 79.866L206.034 78.3488H206.036C207.603 78.0912 209.214 78.2582 210.697 78.8331C212.181 79.408 213.481 80.3717 214.464 81.6216C214.836 82.0963 215.158 82.6044 215.43 83.1412C217.288 82.8645 218.965 82.6092 220.399 82.385C223.583 81.8602 226.735 81.1446 229.836 80.2452C240.26 77.3446 257.54 76.3546 262.475 93.1334C263.837 97.7612 265.424 102.99 265.793 108.772V108.791C266.037 110.793 266.07 112.815 265.894 114.826C265.87 115.482 265.863 116.138 265.822 116.806L265.822 116.806ZM113.613 315.103H131.678V298.338H113.613V315.103ZM164.301 92.5989C164.327 92.494 164.363 92.3699 164.401 92.2674C165.131 89.7268 165.369 87.0695 165.1 84.441C164.928 81.9483 162.974 79.9468 160.484 79.7131C158.096 79.3266 155.78 80.7269 155.014 83.0217C154.73 83.8041 154.504 84.6032 154.337 85.4191C154.22 86.0727 153.931 86.6833 153.497 87.1843C152.443 88.3531 150.735 88.6632 149.339 87.9381C148.44 87.4443 147.584 86.8742 146.782 86.2325C141.441 81.9793 138.34 75.517 138.359 68.6897V66.4951C138.397 63.7662 137.367 61.1327 135.49 59.153C133.491 57.0968 130.702 56.0019 127.837 56.1498C124.798 56.2356 121.778 56.6507 118.83 57.3902C117.52 60.2646 115.409 62.7025 112.754 64.4153C110.097 66.1257 107.005 67.0393 103.845 67.0464C103.845 67.0464 98.0909 66.5884 94.4219 68.8832C76.0157 81.7213 63.7455 107.849 58.0797 122.057C57.3808 123.781 55.4176 124.611 53.6953 123.913C51.9706 123.214 51.1405 121.25 51.8394 119.526C54.7019 112.508 58.8859 102.804 62.8913 94.7362L44.4851 81.4206C36.9855 90.9434 19.2046 115.07 7.74475 143.184L36.2337 160.254L45.8542 135.056L38.9555 134.074H38.9531C37.0901 133.847 35.7184 132.215 35.8139 130.34C35.8926 129.396 36.3602 128.525 37.102 127.933C37.8439 127.344 38.7981 127.087 39.7356 127.223L84.0427 133.534C81.2255 111.169 91.4733 97.5024 95.6931 92.9389L94.8892 77.6508V77.6484C94.7771 76.012 95.8052 74.5139 97.3724 74.0273C98.3838 73.7387 99.4692 73.9247 100.326 74.5354C101.18 75.1461 101.709 76.1122 101.766 77.1594L102.773 96.2306H102.771C103.004 101.266 103.987 106.235 105.688 110.98C106.58 113.479 107.735 115.879 109.135 118.136C110.268 119.906 111.907 121.297 113.834 122.129C115.764 122.962 117.899 123.2 119.965 122.814C129.671 121.161 138.986 117.723 147.44 112.675C148.979 111.728 149.921 110.056 149.93 108.25V103.119C149.937 102.118 150.376 101.168 151.135 100.515C151.896 99.861 152.9 99.5676 153.893 99.7131C155.283 99.9182 162.423 100.529 164.3 92.5951L164.301 92.5989ZM149.912 127.555L125.664 132.729C125.404 148.32 116.54 153.072 124.033 158.869L124.03 158.866C127.277 161.285 129.567 164.77 130.497 168.708L132.632 178.522L135.316 164.35V164.352C135.507 163.358 136.122 162.499 137.002 162C146.849 156.411 149.433 150.185 149.913 148.766L149.912 127.555ZM179.938 240.559C175.255 235.502 160.425 214.086 166.427 150.235L156.806 148.575C156.806 148.575 156.537 158.999 141.799 167.162L136.253 196.441C135.948 198.051 134.553 199.222 132.914 199.246H132.866C131.246 199.246 129.844 198.116 129.5 196.529L123.763 170.165H123.761C123.315 167.952 122.062 165.979 120.25 164.634L119.92 164.393C117.969 162.938 116.378 161.056 115.266 158.89C107.602 174.681 97.1802 201.381 96.7124 230.613V264.374C96.7076 268.271 95.8011 272.115 94.0597 275.604L92.6333 278.453L92.6357 278.45C91.1448 281.339 91.3953 284.82 93.2869 287.465C94.5416 289.09 96.116 290.442 97.9122 291.437H179.937L179.938 240.559ZM246.769 204.902C246.667 202.321 245.567 199.878 243.699 198.092C241.834 196.302 239.348 195.308 236.763 195.317H228.047C228.927 196.553 228.893 198.22 227.963 199.42L223.097 205.666L245.773 234.088C246.927 224.406 247.261 214.642 246.77 204.902L246.769 204.902ZM218.908 184.986L221.963 188.426H235.801C234.997 174.855 234.611 159.956 234.439 150.633C229.709 150.361 225.002 149.748 220.358 148.799C218.755 161.12 218.669 175.026 218.914 184.983L218.908 184.986ZM192.541 165.678C191.823 182.064 190.485 209.129 191.57 226.347L195.652 229.677L220.763 197.448L192.541 165.678ZM234.945 267.337L246.044 253.892C248.02 251.478 248.051 248.014 246.116 245.567L227.656 222.428L208.835 241.798L234.945 267.337ZM186.833 282.009L210.819 255.557L190.862 235.501H190.86C190.082 237.714 188.686 239.658 186.838 241.104L186.833 282.009ZM209.078 85.917C208.615 85.323 207.863 85.032 207.119 85.156L197.57 86.6732C195.559 86.9928 193.83 88.2738 192.942 90.1082C182.659 111.436 182.738 148.186 191.616 147.669L197.258 146.91H197.26C199.631 146.593 201.306 144.427 201.017 142.053C198.367 119.754 205.12 98.5884 209.383 87.9591V87.9567C209.662 87.272 209.547 86.4897 209.077 85.9172L209.078 85.917ZM231.685 86.8831C228.326 87.8563 224.912 88.6292 221.463 89.1969L219.598 89.4808C217.267 89.8338 215.302 91.3987 214.436 93.5909C210.214 104.664 207.831 116.351 207.379 128.191L213.865 127.335C216.103 127.03 218.178 125.995 219.765 124.384C221.349 122.777 222.355 120.687 222.627 118.445C223.717 109.75 227.367 95.6306 239.315 85.9075H239.313C236.737 85.8527 234.165 86.1819 231.685 86.8832L231.685 86.8831ZM256.099 95.75C254.217 91.1676 251.605 88.3481 249.11 88.207C249.038 88.207 248.969 88.1998 248.895 88.1998C243.55 88.1998 237.016 99.5449 236.121 115.105C235.217 130.875 240.57 143.001 245.954 143.309C248.454 143.459 253.891 140.234 255.117 133.779C240.477 138.819 239.7 120.402 239.893 117.057L239.895 117.059C240.012 114.283 240.778 111.573 242.128 109.145C244.196 105.54 247.14 103.441 250.64 103.074C252.531 102.876 254.227 104.247 254.425 106.141C254.626 108.035 253.118 109.195 251.358 109.929C240.728 114.366 246.489 132.376 253.576 126.692C257.846 123.264 258.738 117.775 259.015 114.135L259.017 114.133C259.28 107.873 258.287 101.624 256.1 95.7502L256.099 95.75Z" fill="#98724F"/>
</svg>
